<?xml version="1.0" encoding="UTF-8" standalone="no"?>
<!DOCTYPE svg PUBLIC "-//W3C//DTD SVG 1.1//EN"
 "http://www.w3.org/Graphics/SVG/1.1/DTD/svg11.dtd">
<!-- Generated by graphviz version 2.38.0 (20140413.2041)
 -->
<!-- Title: %3 Pages: 1 -->
<svg width="703pt" height="490pt"
 viewBox="0.00 0.00 702.76 490.44" xmlns="http://www.w3.org/2000/svg" xmlns:xlink="http://www.w3.org/1999/xlink">
<g id="graph0" class="graph" transform="scale(1 1) rotate(0) translate(4 486.437)">
<title>%3</title>
<polygon fill="white" stroke="none" points="-4,4 -4,-486.437 698.76,-486.437 698.76,4 -4,4"/>
<text text-anchor="middle" x="347.38" y="-7.4" font-family="Times,serif" font-size="12.00">the echOmmunity</text>
<!-- medical -->
<g id="node1" class="node"><title>medical</title>
<polygon fill="blue" stroke="black" points="606.406,-220.586 520.406,-220.586 520.406,-184.586 606.406,-184.586 606.406,-220.586"/>
<text text-anchor="middle" x="563.406" y="-196.986" font-family="Times,serif" font-size="22.00">medical</text>
</g>
<!-- benchoufi -->
<g id="node2" class="node"><title>benchoufi</title>
<ellipse fill="yellow" stroke="black" cx="331.117" cy="-322.625" rx="46.2923" ry="18"/>
<text text-anchor="middle" x="331.117" y="-318.925" font-family="Times,serif" font-size="14.00">benchoufi</text>
</g>
<!-- medical&#45;&gt;benchoufi -->
<g id="edge1" class="edge"><title>medical&#45;&gt;benchoufi</title>
<path fill="none" stroke="black" d="M528.378,-220.687C485.189,-243.006 412.111,-280.77 368.06,-303.534"/>
<polygon fill="black" stroke="black" points="366.399,-300.453 359.121,-308.153 369.612,-306.671 366.399,-300.453"/>
</g>
<!-- brunocp -->
<g id="node3" class="node"><title>brunocp</title>
<ellipse fill="yellow" stroke="black" cx="655.113" cy="-267.623" rx="39.7935" ry="18"/>
<text text-anchor="middle" x="655.113" y="-263.923" font-family="Times,serif" font-size="14.00">brunocp</text>
</g>
<!-- medical&#45;&gt;brunocp -->
<g id="edge2" class="edge"><title>medical&#45;&gt;brunocp</title>
<path fill="none" stroke="black" d="M588.951,-220.702C600.296,-228.748 613.718,-238.266 625.499,-246.621"/>
<polygon fill="black" stroke="black" points="623.552,-249.531 633.733,-252.461 627.601,-243.821 623.552,-249.531"/>
</g>
<!-- olivier -->
<g id="node4" class="node"><title>olivier</title>
<ellipse fill="yellow" stroke="black" cx="245.812" cy="-88.2509" rx="33.5952" ry="18"/>
<text text-anchor="middle" x="245.812" y="-84.5509" font-family="Times,serif" font-size="14.00">olivier</text>
</g>
<!-- medical&#45;&gt;olivier -->
<g id="edge3" class="edge"><title>medical&#45;&gt;olivier</title>
<path fill="none" stroke="black" d="M546.367,-184.385C533.121,-171.31 513.638,-154.289 493.344,-144.276 426.804,-111.446 340.695,-97.565 289.555,-91.9093"/>
<polygon fill="black" stroke="black" points="289.812,-88.4171 279.501,-90.854 289.081,-95.3789 289.812,-88.4171"/>
</g>
<!-- rbo -->
<g id="node5" class="node"><title>rbo</title>
<ellipse fill="yellow" stroke="black" cx="331.117" cy="-39" rx="27" ry="18"/>
<text text-anchor="middle" x="331.117" y="-35.3" font-family="Times,serif" font-size="14.00">rbo</text>
</g>
<!-- medical&#45;&gt;rbo -->
<g id="edge4" class="edge"><title>medical&#45;&gt;rbo</title>
<path fill="none" stroke="black" d="M543.077,-184.575C529.363,-172.699 510.673,-157.041 493.344,-144.276 448.249,-111.059 393.04,-76.4302 360.046,-56.334"/>
<polygon fill="black" stroke="black" points="361.721,-53.2568 351.356,-51.0644 358.092,-59.2423 361.721,-53.2568"/>
</g>
<!-- luc -->
<g id="node6" class="node"><title>luc</title>
<ellipse fill="yellow" stroke="black" cx="428.122" cy="-56.1047" rx="27" ry="18"/>
<text text-anchor="middle" x="428.122" y="-52.4047" font-family="Times,serif" font-size="14.00">luc</text>
</g>
<!-- medical&#45;&gt;luc -->
<g id="edge5" class="edge"><title>medical&#45;&gt;luc</title>
<path fill="none" stroke="black" d="M546.546,-184.33C521.943,-157.691 476.219,-108.183 449.354,-79.0942"/>
<polygon fill="black" stroke="black" points="451.666,-76.4389 442.31,-71.4673 446.524,-81.1882 451.666,-76.4389"/>
</g>
<!-- posts -->
<g id="node7" class="node"><title>posts</title>
<polygon fill="blue" stroke="black" points="495.122,-385.874 433.122,-385.874 433.122,-349.874 495.122,-349.874 495.122,-385.874"/>
<text text-anchor="middle" x="464.122" y="-362.274" font-family="Times,serif" font-size="22.00">posts</text>
</g>
<!-- posts&#45;&gt;benchoufi -->
<g id="edge6" class="edge"><title>posts&#45;&gt;benchoufi</title>
<path fill="none" stroke="black" d="M432.938,-357.265C415.938,-351.481 394.601,-344.222 375.856,-337.845"/>
<polygon fill="black" stroke="black" points="376.921,-334.51 366.326,-334.603 374.666,-341.137 376.921,-334.51"/>
</g>
<!-- posts&#45;&gt;olivier -->
<g id="edge9" class="edge"><title>posts&#45;&gt;olivier</title>
<path fill="none" stroke="black" d="M450.145,-349.87C424.584,-316.955 368.568,-244.875 321.164,-184.238 302.183,-159.957 280.442,-132.276 265.207,-112.9"/>
<polygon fill="black" stroke="black" points="267.834,-110.578 258.901,-104.882 262.331,-114.906 267.834,-110.578"/>
</g>
<!-- posts&#45;&gt;rbo -->
<g id="edge8" class="edge"><title>posts&#45;&gt;rbo</title>
<path fill="none" stroke="black" d="M456.782,-349.724C434.657,-295.017 368.522,-131.49 342.151,-66.2821"/>
<polygon fill="black" stroke="black" points="345.266,-64.6509 338.272,-56.6926 338.777,-67.2754 345.266,-64.6509"/>
</g>
<!-- posts&#45;&gt;luc -->
<g id="edge7" class="edge"><title>posts&#45;&gt;luc</title>
<path fill="none" stroke="black" d="M455.911,-349.6C439.829,-311.8 406.3,-222.046 412.944,-144.276 414.674,-124.027 418.601,-101.443 422.027,-84.2016"/>
<polygon fill="black" stroke="black" points="425.492,-84.7242 424.071,-74.2251 418.635,-83.319 425.492,-84.7242"/>
</g>
<!-- aurelie -->
<g id="node8" class="node"><title>aurelie</title>
<ellipse fill="yellow" stroke="black" cx="500.122" cy="-430.228" rx="34.394" ry="18"/>
<text text-anchor="middle" x="500.122" y="-426.528" font-family="Times,serif" font-size="14.00">aurelie</text>
</g>
<!-- posts&#45;&gt;aurelie -->
<g id="edge10" class="edge"><title>posts&#45;&gt;aurelie</title>
<path fill="none" stroke="black" d="M474.535,-385.909C477.828,-391.612 481.535,-398.033 485.084,-404.181"/>
<polygon fill="black" stroke="black" points="482.074,-405.966 490.105,-412.877 488.136,-402.466 482.074,-405.966"/>
</g>
<!-- legal -->
<g id="node9" class="node"><title>legal</title>
<polygon fill="blue" stroke="black" points="317.964,-223.438 258.964,-223.438 258.964,-187.438 317.964,-187.438 317.964,-223.438"/>
<text text-anchor="middle" x="288.464" y="-199.838" font-family="Times,serif" font-size="22.00">legal</text>
</g>
<!-- legal&#45;&gt;benchoufi -->
<g id="edge14" class="edge"><title>legal&#45;&gt;benchoufi</title>
<path fill="none" stroke="black" d="M295.035,-223.491C302.006,-242.644 313.103,-273.131 321.151,-295.243"/>
<polygon fill="black" stroke="black" points="317.899,-296.543 324.608,-304.743 324.477,-294.149 317.899,-296.543"/>
</g>
<!-- legal&#45;&gt;olivier -->
<g id="edge12" class="edge"><title>legal&#45;&gt;olivier</title>
<path fill="none" stroke="black" d="M281.893,-187.384C274.922,-168.232 263.826,-137.744 255.778,-115.632"/>
<polygon fill="black" stroke="black" points="259.029,-114.333 252.32,-106.133 252.452,-116.727 259.029,-114.333"/>
</g>
<!-- legal&#45;&gt;rbo -->
<g id="edge13" class="edge"><title>legal&#45;&gt;rbo</title>
<path fill="none" stroke="black" d="M293.11,-187.309C300.565,-158.219 315.25,-100.915 324.023,-66.6813"/>
<polygon fill="black" stroke="black" points="327.449,-67.4102 326.541,-56.8543 320.668,-65.6724 327.449,-67.4102"/>
</g>
<!-- legal&#45;&gt;luc -->
<g id="edge11" class="edge"><title>legal&#45;&gt;luc</title>
<path fill="none" stroke="black" d="M305.31,-187.425C330.75,-160.222 378.951,-108.682 406.802,-78.9018"/>
<polygon fill="black" stroke="black" points="409.476,-81.1667 413.75,-71.4722 404.363,-76.3853 409.476,-81.1667"/>
</g>
<!-- eiffel -->
<g id="node10" class="node"><title>eiffel</title>
<ellipse fill="yellow" stroke="black" cx="359.975" cy="-186.642" rx="29.4969" ry="18"/>
<text text-anchor="middle" x="359.975" y="-182.942" font-family="Times,serif" font-size="14.00">eiffel</text>
</g>
<!-- legal&#45;&gt;eiffel -->
<g id="edge15" class="edge"><title>legal&#45;&gt;eiffel</title>
<path fill="none" stroke="black" d="M318.377,-197.576C319.86,-197.186 321.357,-196.793 322.857,-196.398"/>
<polygon fill="black" stroke="black" points="323.91,-199.741 332.691,-193.814 322.13,-192.971 323.91,-199.741"/>
</g>
<!-- hardware -->
<g id="node11" class="node"><title>hardware</title>
<polygon fill="blue" stroke="black" points="368.114,-411.531 269.114,-411.531 269.114,-375.531 368.114,-375.531 368.114,-411.531"/>
<text text-anchor="middle" x="318.614" y="-387.931" font-family="Times,serif" font-size="22.00">hardware</text>
</g>
<!-- hardware&#45;&gt;benchoufi -->
<g id="edge19" class="edge"><title>hardware&#45;&gt;benchoufi</title>
<path fill="none" stroke="black" d="M321.834,-375.271C323.136,-367.885 324.67,-359.185 326.112,-351.008"/>
<polygon fill="black" stroke="black" points="329.575,-351.525 327.865,-341.069 322.681,-350.31 329.575,-351.525"/>
</g>
<!-- hardware&#45;&gt;olivier -->
<g id="edge18" class="edge"><title>hardware&#45;&gt;olivier</title>
<path fill="none" stroke="black" d="M308.397,-375.286C300.796,-361.204 290.542,-341.076 283.371,-322.625 267.291,-281.249 263.533,-270.343 255.764,-226.638 249.065,-188.952 246.848,-144.731 246.13,-116.608"/>
<polygon fill="black" stroke="black" points="249.623,-116.237 245.916,-106.312 242.625,-116.383 249.623,-116.237"/>
</g>
<!-- hardware&#45;&gt;rbo -->
<g id="edge16" class="edge"><title>hardware&#45;&gt;rbo</title>
<path fill="none" stroke="black" d="M304.372,-375.473C294.963,-361.81 284.212,-342.127 283.371,-322.625 281.396,-276.819 311.426,-271.44 321.164,-226.638 333.242,-171.077 333.487,-104.194 332.413,-67.161"/>
<polygon fill="black" stroke="black" points="335.909,-66.9798 332.067,-57.1063 328.913,-67.2209 335.909,-66.9798"/>
</g>
<!-- hardware&#45;&gt;luc -->
<g id="edge17" class="edge"><title>hardware&#45;&gt;luc</title>
<path fill="none" stroke="black" d="M338.827,-375.345C352.293,-362.067 369.227,-342.906 378.863,-322.625 383.98,-311.855 411.88,-151.024 423.273,-84.5385"/>
<polygon fill="black" stroke="black" points="426.779,-84.8011 425.016,-74.3541 419.879,-83.6206 426.779,-84.8011"/>
</g>
<!-- jerome -->
<g id="node12" class="node"><title>jerome</title>
<ellipse fill="yellow" stroke="black" cx="306.112" cy="-464.437" rx="35.9954" ry="18"/>
<text text-anchor="middle" x="306.112" y="-460.737" font-family="Times,serif" font-size="14.00">jerome</text>
</g>
<!-- hardware&#45;&gt;jerome -->
<g id="edge20" class="edge"><title>hardware&#45;&gt;jerome</title>
<path fill="none" stroke="black" d="M315.394,-411.791C314.072,-419.292 312.51,-428.149 311.049,-436.436"/>
<polygon fill="black" stroke="black" points="307.567,-436.028 309.277,-446.484 314.46,-437.244 307.567,-436.028"/>
</g>
<!-- design -->
<g id="node13" class="node"><title>design</title>
<polygon fill="blue" stroke="black" points="490.144,-183.476 416.144,-183.476 416.144,-147.476 490.144,-147.476 490.144,-183.476"/>
<text text-anchor="middle" x="453.144" y="-159.876" font-family="Times,serif" font-size="22.00">design</text>
</g>
<!-- design&#45;&gt;benchoufi -->
<g id="edge22" class="edge"><title>design&#45;&gt;benchoufi</title>
<path fill="none" stroke="black" d="M439.146,-183.503C417.423,-211.478 375.526,-265.434 350.777,-297.306"/>
<polygon fill="black" stroke="black" points="347.949,-295.242 344.58,-305.287 353.478,-299.535 347.949,-295.242"/>
</g>
<!-- design&#45;&gt;olivier -->
<g id="edge24" class="edge"><title>design&#45;&gt;olivier</title>
<path fill="none" stroke="black" d="M416.077,-151.67C378.548,-137.691 320.823,-116.191 283.184,-102.171"/>
<polygon fill="black" stroke="black" points="284.197,-98.8133 273.604,-98.6026 281.753,-105.373 284.197,-98.8133"/>
</g>
<!-- design&#45;&gt;rbo -->
<g id="edge21" class="edge"><title>design&#45;&gt;rbo</title>
<path fill="none" stroke="black" d="M435.661,-147.355C413.896,-124.797 376.712,-86.2574 353.056,-61.7389"/>
<polygon fill="black" stroke="black" points="355.35,-59.0755 345.887,-54.3091 350.312,-63.9359 355.35,-59.0755"/>
</g>
<!-- design&#45;&gt;luc -->
<g id="edge23" class="edge"><title>design&#45;&gt;luc</title>
<path fill="none" stroke="black" d="M449.012,-147.416C445.064,-130.159 439.056,-103.897 434.495,-83.96"/>
<polygon fill="black" stroke="black" points="437.902,-83.1596 432.26,-74.192 431.079,-84.7208 437.902,-83.1596"/>
</g>
<!-- design&#45;&gt;eiffel -->
<g id="edge25" class="edge"><title>design&#45;&gt;eiffel</title>
<path fill="none" stroke="black" d="M416.054,-173.903C409.942,-175.291 403.603,-176.731 397.481,-178.122"/>
<polygon fill="black" stroke="black" points="396.439,-174.77 387.462,-180.398 397.989,-181.596 396.439,-174.77"/>
</g>
<!-- community -->
<g id="node14" class="node"><title>community</title>
<polygon fill="blue" stroke="black" points="249.657,-337.654 131.657,-337.654 131.657,-301.654 249.657,-301.654 249.657,-337.654"/>
<text text-anchor="middle" x="190.657" y="-314.054" font-family="Times,serif" font-size="22.00">community</text>
</g>
<!-- community&#45;&gt;benchoufi -->
<g id="edge26" class="edge"><title>community&#45;&gt;benchoufi</title>
<path fill="none" stroke="black" d="M249.817,-320.905C258.041,-321.079 266.473,-321.258 274.645,-321.43"/>
<polygon fill="black" stroke="black" points="274.752,-324.933 284.824,-321.646 274.9,-317.935 274.752,-324.933"/>
</g>
<!-- community&#45;&gt;olivier -->
<g id="edge27" class="edge"><title>community&#45;&gt;olivier</title>
<path fill="none" stroke="black" d="M194.985,-301.497C204.59,-261.196 227.743,-164.058 239.185,-116.055"/>
<polygon fill="black" stroke="black" points="242.59,-116.863 241.504,-106.324 235.781,-115.24 242.59,-116.863"/>
</g>
<!-- community&#45;&gt;rbo -->
<g id="edge29" class="edge"><title>community&#45;&gt;rbo</title>
<path fill="none" stroke="black" d="M199.119,-301.608C211.378,-275.571 234.893,-226.008 255.764,-184.238 276.64,-142.459 301.782,-94.4371 317.1,-65.4244"/>
<polygon fill="black" stroke="black" points="320.318,-66.8268 321.898,-56.3505 314.129,-63.5548 320.318,-66.8268"/>
</g>
<!-- community&#45;&gt;luc -->
<g id="edge28" class="edge"><title>community&#45;&gt;luc</title>
<path fill="none" stroke="black" d="M230.325,-301.626C260.029,-286.032 299.182,-260.633 321.164,-226.638 331.01,-211.411 322.273,-203.411 329.128,-186.624 346.688,-143.622 382.135,-102.365 405.498,-78.1286"/>
<polygon fill="black" stroke="black" points="408.111,-80.464 412.621,-70.8773 403.117,-75.5586 408.111,-80.464"/>
</g>
<!-- community&#45;&gt;aurelie -->
<g id="edge30" class="edge"><title>community&#45;&gt;aurelie</title>
<path fill="none" stroke="black" d="M249.907,-334.703C285.499,-344.291 331.463,-357.645 371.314,-372.331 403.953,-384.359 439.977,-400.837 465.609,-413.139"/>
<polygon fill="black" stroke="black" points="464.369,-416.427 474.895,-417.631 467.417,-410.126 464.369,-416.427"/>
</g>
<!-- software -->
<g id="node15" class="node"><title>software</title>
<polygon fill="blue" stroke="black" points="195.295,-188.062 103.295,-188.062 103.295,-152.062 195.295,-152.062 195.295,-188.062"/>
<text text-anchor="middle" x="149.295" y="-164.462" font-family="Times,serif" font-size="22.00">software</text>
</g>
<!-- software&#45;&gt;benchoufi -->
<g id="edge31" class="edge"><title>software&#45;&gt;benchoufi</title>
<path fill="none" stroke="black" d="M170.867,-188.162C204.012,-215.973 267.431,-269.187 303.759,-299.669"/>
<polygon fill="black" stroke="black" points="301.601,-302.428 311.512,-306.174 306.101,-297.065 301.601,-302.428"/>
</g>
<!-- software&#45;&gt;rbo -->
<g id="edge32" class="edge"><title>software&#45;&gt;rbo</title>
<path fill="none" stroke="black" d="M188.345,-151.991C213.124,-139.638 245.222,-121.952 270.831,-102.116 285.67,-90.6221 300.263,-75.4745 311.374,-62.8998"/>
<polygon fill="black" stroke="black" points="314.248,-64.9264 318.14,-55.0722 308.953,-60.3486 314.248,-64.9264"/>
</g>
<!-- software&#45;&gt;luc -->
<g id="edge33" class="edge"><title>software&#45;&gt;luc</title>
<path fill="none" stroke="black" d="M193.476,-152.005C249.765,-129 345.728,-89.7793 395.704,-69.3539"/>
<polygon fill="black" stroke="black" points="397.128,-72.553 405.061,-65.5298 394.48,-66.0733 397.128,-72.553"/>
</g>
<!-- software&#45;&gt;aurelie -->
<g id="edge34" class="edge"><title>software&#45;&gt;aurelie</title>
<path fill="none" stroke="black" d="M181.77,-188.079C225.25,-212.832 303.964,-259.877 364.878,-308.765 371.703,-314.242 373.076,-316.061 378.863,-322.625 403.492,-350.563 401.994,-364.433 429.922,-389.074 440.475,-398.384 453.443,-406.679 465.35,-413.34"/>
<polygon fill="black" stroke="black" points="463.728,-416.442 474.191,-418.105 467.049,-410.28 463.728,-416.442"/>
</g>
<!-- hackolite -->
<g id="node16" class="node"><title>hackolite</title>
<ellipse fill="yellow" stroke="black" cx="42.8962" cy="-161.448" rx="42.7926" ry="18"/>
<text text-anchor="middle" x="42.8962" y="-157.748" font-family="Times,serif" font-size="14.00">hackolite</text>
</g>
<!-- software&#45;&gt;hackolite -->
<g id="edge35" class="edge"><title>software&#45;&gt;hackolite</title>
<path fill="none" stroke="black" d="M103.246,-166.334C100.641,-166.123 98.0135,-165.91 95.3879,-165.698"/>
<polygon fill="black" stroke="black" points="95.5764,-162.201 85.3266,-164.883 95.0115,-169.179 95.5764,-162.201"/>
</g>
</g>
</svg>
