<?xml version="1.0" encoding="UTF-8" standalone="no"?>
<!DOCTYPE svg PUBLIC "-//W3C//DTD SVG 1.1//EN"
 "http://www.w3.org/Graphics/SVG/1.1/DTD/svg11.dtd">
<!-- Generated by graphviz version 2.38.0 (20140413.2041)
 -->
<!-- Title: %3 Pages: 1 -->
<svg width="545pt" height="490pt"
 viewBox="0.00 0.00 545.44 490.44" xmlns="http://www.w3.org/2000/svg" xmlns:xlink="http://www.w3.org/1999/xlink">
<g id="graph0" class="graph" transform="scale(1 1) rotate(0) translate(4 486.437)">
<title>%3</title>
<polygon fill="white" stroke="none" points="-4,4 -4,-486.437 541.437,-486.437 541.437,4 -4,4"/>
<text text-anchor="middle" x="268.719" y="-7.4" font-family="Times,serif" font-size="12.00">the echOmmunity</text>
<!-- medical -->
<g id="node1" class="node"><title>medical</title>
<polygon fill="blue" stroke="black" points="463.477,-196.971 377.477,-196.971 377.477,-160.971 463.477,-160.971 463.477,-196.971"/>
<text text-anchor="middle" x="420.477" y="-173.371" font-family="Times,serif" font-size="22.00">medical</text>
</g>
<!-- benchoufi -->
<g id="node2" class="node"><title>benchoufi</title>
<ellipse fill="yellow" stroke="black" cx="227.471" cy="-322.625" rx="46.2923" ry="18"/>
<text text-anchor="middle" x="227.471" y="-318.925" font-family="Times,serif" font-size="14.00">benchoufi</text>
</g>
<!-- medical&#45;&gt;benchoufi -->
<g id="edge1" class="edge"><title>medical&#45;&gt;benchoufi</title>
<path fill="none" stroke="black" d="M396.032,-197.165C360.668,-223.486 295.31,-272.132 257.202,-300.496"/>
<polygon fill="black" stroke="black" points="254.98,-297.787 249.048,-306.565 259.16,-303.402 254.98,-297.787"/>
</g>
<!-- brunocp -->
<g id="node3" class="node"><title>brunocp</title>
<ellipse fill="yellow" stroke="black" cx="497.791" cy="-267.573" rx="39.7935" ry="18"/>
<text text-anchor="middle" x="497.791" y="-263.873" font-family="Times,serif" font-size="14.00">brunocp</text>
</g>
<!-- medical&#45;&gt;brunocp -->
<g id="edge2" class="edge"><title>medical&#45;&gt;brunocp</title>
<path fill="none" stroke="black" d="M436.496,-197.329C448.065,-210.587 463.81,-228.632 476.446,-243.112"/>
<polygon fill="black" stroke="black" points="473.887,-245.503 483.099,-250.737 479.162,-240.901 473.887,-245.503"/>
</g>
<!-- olivier -->
<g id="node4" class="node"><title>olivier</title>
<ellipse fill="yellow" stroke="black" cx="58.4656" cy="-180.812" rx="33.5952" ry="18"/>
<text text-anchor="middle" x="58.4656" y="-177.112" font-family="Times,serif" font-size="14.00">olivier</text>
</g>
<!-- medical&#45;&gt;olivier -->
<g id="edge3" class="edge"><title>medical&#45;&gt;olivier</title>
<path fill="none" stroke="black" d="M377.074,-174.11C332.699,-169.654 261.761,-163.949 200.314,-165.384 166.935,-166.164 129.385,-170.399 101.307,-174.235"/>
<polygon fill="black" stroke="black" points="100.454,-170.82 91.0385,-175.678 101.428,-177.752 100.454,-170.82"/>
</g>
<!-- rbo -->
<g id="node5" class="node"><title>rbo</title>
<ellipse fill="yellow" stroke="black" cx="92.1552" cy="-88.2509" rx="27" ry="18"/>
<text text-anchor="middle" x="92.1552" y="-84.5509" font-family="Times,serif" font-size="14.00">rbo</text>
</g>
<!-- medical&#45;&gt;rbo -->
<g id="edge4" class="edge"><title>medical&#45;&gt;rbo</title>
<path fill="none" stroke="black" d="M377.217,-167.018C311.375,-148.825 187.306,-114.543 126.927,-97.8588"/>
<polygon fill="black" stroke="black" points="127.682,-94.4363 117.111,-95.1465 125.817,-101.183 127.682,-94.4363"/>
</g>
<!-- luc -->
<g id="node6" class="node"><title>luc</title>
<ellipse fill="yellow" stroke="black" cx="177.46" cy="-39" rx="27" ry="18"/>
<text text-anchor="middle" x="177.46" y="-35.3" font-family="Times,serif" font-size="14.00">luc</text>
</g>
<!-- medical&#45;&gt;luc -->
<g id="edge5" class="edge"><title>medical&#45;&gt;luc</title>
<path fill="none" stroke="black" d="M377.452,-169.95C353.113,-163.925 322.549,-154.782 297.096,-142.218 260.177,-123.994 252.822,-115.246 222.109,-87.8265 213.537,-80.1744 204.847,-71.0473 197.44,-62.7664"/>
<polygon fill="black" stroke="black" points="200,-60.3767 190.777,-55.1619 194.735,-64.9898 200,-60.3767"/>
</g>
<!-- posts -->
<g id="node7" class="node"><title>posts</title>
<polygon fill="blue" stroke="black" points="178.31,-245.093 116.31,-245.093 116.31,-209.093 178.31,-209.093 178.31,-245.093"/>
<text text-anchor="middle" x="147.31" y="-221.493" font-family="Times,serif" font-size="22.00">posts</text>
</g>
<!-- posts&#45;&gt;benchoufi -->
<g id="edge6" class="edge"><title>posts&#45;&gt;benchoufi</title>
<path fill="none" stroke="black" d="M162.766,-245.512C175.086,-260.195 192.474,-280.917 206.123,-297.183"/>
<polygon fill="black" stroke="black" points="203.764,-299.817 212.873,-305.228 209.126,-295.317 203.764,-299.817"/>
</g>
<!-- posts&#45;&gt;olivier -->
<g id="edge8" class="edge"><title>posts&#45;&gt;olivier</title>
<path fill="none" stroke="black" d="M116.237,-210.906C108.324,-206.785 99.7889,-202.338 91.77,-198.161"/>
<polygon fill="black" stroke="black" points="93.148,-194.933 82.6621,-193.417 89.914,-201.141 93.148,-194.933"/>
</g>
<!-- posts&#45;&gt;rbo -->
<g id="edge9" class="edge"><title>posts&#45;&gt;rbo</title>
<path fill="none" stroke="black" d="M140.1,-208.942C130.633,-185.112 113.933,-143.073 102.955,-115.437"/>
<polygon fill="black" stroke="black" points="106.138,-113.969 99.1932,-105.968 99.6324,-116.553 106.138,-113.969"/>
</g>
<!-- posts&#45;&gt;luc -->
<g id="edge7" class="edge"><title>posts&#45;&gt;luc</title>
<path fill="none" stroke="black" d="M150.201,-209.058C155.48,-176.125 166.713,-106.05 172.986,-66.9127"/>
<polygon fill="black" stroke="black" points="176.451,-67.4085 174.578,-56.9805 169.539,-66.3005 176.451,-67.4085"/>
</g>
<!-- aurelie -->
<g id="node8" class="node"><title>aurelie</title>
<ellipse fill="yellow" stroke="black" cx="200.281" cy="-184.984" rx="34.394" ry="18"/>
<text text-anchor="middle" x="200.281" y="-181.284" font-family="Times,serif" font-size="14.00">aurelie</text>
</g>
<!-- posts&#45;&gt;aurelie -->
<g id="edge10" class="edge"><title>posts&#45;&gt;aurelie</title>
<path fill="none" stroke="black" d="M170.082,-208.991C171.123,-208.163 172.172,-207.329 173.222,-206.495"/>
<polygon fill="black" stroke="black" points="175.535,-209.127 181.185,-200.164 171.179,-203.647 175.535,-209.127"/>
</g>
<!-- legal -->
<g id="node9" class="node"><title>legal</title>
<polygon fill="blue" stroke="black" points="339.966,-385.874 280.966,-385.874 280.966,-349.874 339.966,-349.874 339.966,-385.874"/>
<text text-anchor="middle" x="310.466" y="-362.274" font-family="Times,serif" font-size="22.00">legal</text>
</g>
<!-- legal&#45;&gt;benchoufi -->
<g id="edge14" class="edge"><title>legal&#45;&gt;benchoufi</title>
<path fill="none" stroke="black" d="M280.503,-351.538C274.896,-348.481 268.984,-345.258 263.223,-342.117"/>
<polygon fill="black" stroke="black" points="264.815,-338.998 254.36,-337.284 261.464,-345.144 264.815,-338.998"/>
</g>
<!-- legal&#45;&gt;olivier -->
<g id="edge12" class="edge"><title>legal&#45;&gt;olivier</title>
<path fill="none" stroke="black" d="M299.468,-349.648C290.658,-336.508 277.163,-319.299 261.232,-308.765 201.92,-269.544 170.193,-290.693 113.11,-248.293 97.9218,-237.011 84.4916,-220.572 74.7465,-206.744"/>
<polygon fill="black" stroke="black" points="77.4032,-204.426 68.8932,-198.114 71.6101,-208.355 77.4032,-204.426"/>
</g>
<!-- legal&#45;&gt;rbo -->
<g id="edge13" class="edge"><title>legal&#45;&gt;rbo</title>
<path fill="none" stroke="black" d="M296.461,-349.771C290.019,-341.476 282.258,-331.529 275.217,-322.625 233.95,-270.441 225.344,-255.94 181.51,-205.893 178.651,-202.629 177.584,-202.133 174.768,-198.831 169.747,-192.942 168.887,-191.15 164.234,-184.966 145.807,-160.479 124.893,-132.383 110.357,-112.806"/>
<polygon fill="black" stroke="black" points="113.122,-110.658 104.352,-104.714 107.501,-114.83 113.122,-110.658"/>
</g>
<!-- legal&#45;&gt;luc -->
<g id="edge11" class="edge"><title>legal&#45;&gt;luc</title>
<path fill="none" stroke="black" d="M303.125,-349.724C281,-295.017 214.866,-131.49 188.494,-66.2821"/>
<polygon fill="black" stroke="black" points="191.61,-64.6509 184.616,-56.6926 185.12,-67.2754 191.61,-64.6509"/>
</g>
<!-- eiffel -->
<g id="node10" class="node"><title>eiffel</title>
<ellipse fill="yellow" stroke="black" cx="346.466" cy="-430.228" rx="29.4969" ry="18"/>
<text text-anchor="middle" x="346.466" y="-426.528" font-family="Times,serif" font-size="14.00">eiffel</text>
</g>
<!-- legal&#45;&gt;eiffel -->
<g id="edge15" class="edge"><title>legal&#45;&gt;eiffel</title>
<path fill="none" stroke="black" d="M320.878,-385.909C324.171,-391.612 327.878,-398.033 331.428,-404.181"/>
<polygon fill="black" stroke="black" points="328.417,-405.966 336.448,-412.877 334.479,-402.466 328.417,-405.966"/>
</g>
<!-- hardware -->
<g id="node11" class="node"><title>hardware</title>
<polygon fill="blue" stroke="black" points="214.458,-411.531 115.458,-411.531 115.458,-375.531 214.458,-375.531 214.458,-411.531"/>
<text text-anchor="middle" x="164.958" y="-387.931" font-family="Times,serif" font-size="22.00">hardware</text>
</g>
<!-- hardware&#45;&gt;benchoufi -->
<g id="edge19" class="edge"><title>hardware&#45;&gt;benchoufi</title>
<path fill="none" stroke="black" d="M181.056,-375.271C188.443,-366.892 197.32,-356.823 205.324,-347.745"/>
<polygon fill="black" stroke="black" points="208.085,-349.905 212.073,-340.089 202.835,-345.276 208.085,-349.905"/>
</g>
<!-- hardware&#45;&gt;olivier -->
<g id="edge18" class="edge"><title>hardware&#45;&gt;olivier</title>
<path fill="none" stroke="black" d="M155.878,-375.395C137.08,-337.845 93.8212,-251.435 71.8281,-207.504"/>
<polygon fill="black" stroke="black" points="74.8291,-205.68 67.2227,-198.305 68.5696,-208.814 74.8291,-205.68"/>
</g>
<!-- hardware&#45;&gt;rbo -->
<g id="edge16" class="edge"><title>hardware&#45;&gt;rbo</title>
<path fill="none" stroke="black" d="M156.948,-375.117C145.448,-347.914 124.404,-295.143 113.11,-248.293 102.137,-202.769 96.5605,-148.483 94.011,-116.272"/>
<polygon fill="black" stroke="black" points="97.4968,-115.95 93.259,-106.24 90.5164,-116.473 97.4968,-115.95"/>
</g>
<!-- hardware&#45;&gt;luc -->
<g id="edge17" class="edge"><title>hardware&#45;&gt;luc</title>
<path fill="none" stroke="black" d="M167.717,-375.246C171.709,-347.768 178.905,-294.154 181.51,-248.293 182.579,-229.479 188.519,-223.385 181.51,-205.893 179.896,-201.865 177.584,-202.133 174.768,-198.831 169.747,-192.942 166.37,-192.405 164.234,-184.966 152.735,-144.931 161.35,-96.412 169.057,-66.6291"/>
<polygon fill="black" stroke="black" points="172.451,-67.4896 171.711,-56.9206 165.698,-65.6438 172.451,-67.4896"/>
</g>
<!-- jerome -->
<g id="node12" class="node"><title>jerome</title>
<ellipse fill="yellow" stroke="black" cx="152.455" cy="-464.437" rx="35.9954" ry="18"/>
<text text-anchor="middle" x="152.455" y="-460.737" font-family="Times,serif" font-size="14.00">jerome</text>
</g>
<!-- hardware&#45;&gt;jerome -->
<g id="edge20" class="edge"><title>hardware&#45;&gt;jerome</title>
<path fill="none" stroke="black" d="M161.738,-411.791C160.415,-419.292 158.854,-428.149 157.392,-436.436"/>
<polygon fill="black" stroke="black" points="153.91,-436.028 155.62,-446.484 160.804,-437.244 153.91,-436.028"/>
</g>
<!-- design -->
<g id="node13" class="node"><title>design</title>
<polygon fill="blue" stroke="black" points="74,-337.654 0,-337.654 0,-301.654 74,-301.654 74,-337.654"/>
<text text-anchor="middle" x="37" y="-314.054" font-family="Times,serif" font-size="22.00">design</text>
</g>
<!-- design&#45;&gt;benchoufi -->
<g id="edge22" class="edge"><title>design&#45;&gt;benchoufi</title>
<path fill="none" stroke="black" d="M74.1769,-320.234C101.704,-320.663 139.695,-321.256 170.968,-321.744"/>
<polygon fill="black" stroke="black" points="171.239,-325.248 181.292,-321.905 171.348,-318.249 171.239,-325.248"/>
</g>
<!-- design&#45;&gt;olivier -->
<g id="edge24" class="edge"><title>design&#45;&gt;olivier</title>
<path fill="none" stroke="black" d="M39.8063,-301.503C43.438,-278.013 49.8057,-236.826 54.0789,-209.186"/>
<polygon fill="black" stroke="black" points="57.5896,-209.385 55.6587,-198.968 50.6718,-208.316 57.5896,-209.385"/>
</g>
<!-- design&#45;&gt;rbo -->
<g id="edge21" class="edge"><title>design&#45;&gt;rbo</title>
<path fill="none" stroke="black" d="M47.2427,-301.534C61.1709,-275.71 85.3278,-226.391 93.8626,-180.82 97.845,-159.557 97.1682,-135.066 95.6304,-116.618"/>
<polygon fill="black" stroke="black" points="99.1007,-116.141 94.6542,-106.524 92.1332,-116.815 99.1007,-116.141"/>
</g>
<!-- design&#45;&gt;luc -->
<g id="edge23" class="edge"><title>design&#45;&gt;luc</title>
<path fill="none" stroke="black" d="M46.216,-301.24C70.4478,-252.822 136.019,-121.804 164.245,-65.4058"/>
<polygon fill="black" stroke="black" points="167.408,-66.9063 168.753,-56.3972 161.148,-63.7734 167.408,-66.9063"/>
</g>
<!-- design&#45;&gt;eiffel -->
<g id="edge25" class="edge"><title>design&#45;&gt;eiffel</title>
<path fill="none" stroke="black" d="M74.1622,-328.875C111.031,-338.399 168.916,-354.369 217.658,-372.331 251.316,-384.734 288.575,-401.871 314.324,-414.28"/>
<polygon fill="black" stroke="black" points="313.074,-417.563 323.598,-418.784 316.132,-411.267 313.074,-417.563"/>
</g>
<!-- community -->
<g id="node14" class="node"><title>community</title>
<polygon fill="blue" stroke="black" points="343.309,-84.6265 225.309,-84.6265 225.309,-48.6265 343.309,-48.6265 343.309,-84.6265"/>
<text text-anchor="middle" x="284.309" y="-61.0265" font-family="Times,serif" font-size="22.00">community</text>
</g>
<!-- community&#45;&gt;benchoufi -->
<g id="edge26" class="edge"><title>community&#45;&gt;benchoufi</title>
<path fill="none" stroke="black" d="M280.312,-84.6278C270.549,-128.602 245.428,-241.744 233.69,-294.616"/>
<polygon fill="black" stroke="black" points="230.214,-294.122 231.463,-304.643 237.048,-295.64 230.214,-294.122"/>
</g>
<!-- community&#45;&gt;olivier -->
<g id="edge27" class="edge"><title>community&#45;&gt;olivier</title>
<path fill="none" stroke="black" d="M248.523,-84.7196C205.624,-106.41 134.272,-142.485 92.2708,-163.72"/>
<polygon fill="black" stroke="black" points="90.6148,-160.636 83.2698,-168.271 93.7733,-166.883 90.6148,-160.636"/>
</g>
<!-- community&#45;&gt;rbo -->
<g id="edge29" class="edge"><title>community&#45;&gt;rbo</title>
<path fill="none" stroke="black" d="M225.089,-73.291C193.742,-76.8187 156.226,-81.0406 129.054,-84.0985"/>
<polygon fill="black" stroke="black" points="128.364,-80.6539 118.818,-85.2503 129.147,-87.61 128.364,-80.6539"/>
</g>
<!-- community&#45;&gt;luc -->
<g id="edge28" class="edge"><title>community&#45;&gt;luc</title>
<path fill="none" stroke="black" d="M225.259,-51.3588C220.931,-50.2396 216.652,-49.1333 212.538,-48.0696"/>
<polygon fill="black" stroke="black" points="213.276,-44.6455 202.718,-45.5307 211.524,-51.4226 213.276,-44.6455"/>
</g>
<!-- community&#45;&gt;aurelie -->
<g id="edge30" class="edge"><title>community&#45;&gt;aurelie</title>
<path fill="none" stroke="black" d="M271.364,-84.8605C257.139,-104.896 234.195,-137.214 218.236,-159.693"/>
<polygon fill="black" stroke="black" points="215.222,-157.892 212.287,-168.073 220.93,-161.945 215.222,-157.892"/>
</g>
<!-- software -->
<g id="node15" class="node"><title>software</title>
<polygon fill="blue" stroke="black" points="392.296,-139.018 300.296,-139.018 300.296,-103.018 392.296,-103.018 392.296,-139.018"/>
<text text-anchor="middle" x="346.296" y="-115.418" font-family="Times,serif" font-size="22.00">software</text>
</g>
<!-- software&#45;&gt;benchoufi -->
<g id="edge31" class="edge"><title>software&#45;&gt;benchoufi</title>
<path fill="none" stroke="black" d="M335.541,-139.265C314.456,-175.039 267.611,-254.52 243.102,-296.104"/>
<polygon fill="black" stroke="black" points="240.008,-294.461 237.945,-304.853 246.038,-298.015 240.008,-294.461"/>
</g>
<!-- software&#45;&gt;olivier -->
<g id="edge35" class="edge"><title>software&#45;&gt;olivier</title>
<path fill="none" stroke="black" d="M300.051,-130.625C244.928,-142.076 153.61,-161.047 100.441,-172.092"/>
<polygon fill="black" stroke="black" points="99.4169,-168.73 90.3379,-174.191 100.841,-175.584 99.4169,-168.73"/>
</g>
<!-- software&#45;&gt;rbo -->
<g id="edge32" class="edge"><title>software&#45;&gt;rbo</title>
<path fill="none" stroke="black" d="M300.273,-115.084C251.04,-108.736 173.949,-98.7967 128.704,-92.9632"/>
<polygon fill="black" stroke="black" points="129.104,-89.4859 118.739,-91.6784 128.209,-96.4285 129.104,-89.4859"/>
</g>
<!-- software&#45;&gt;luc -->
<g id="edge33" class="edge"><title>software&#45;&gt;luc</title>
<path fill="none" stroke="black" d="M300.16,-115.099C275.64,-110.423 245.764,-102.187 222.109,-87.8265 211.885,-81.6198 202.592,-72.3844 195.163,-63.6109"/>
<polygon fill="black" stroke="black" points="197.876,-61.3995 188.892,-55.7837 192.413,-65.7763 197.876,-61.3995"/>
</g>
<!-- software&#45;&gt;aurelie -->
<g id="edge34" class="edge"><title>software&#45;&gt;aurelie</title>
<path fill="none" stroke="black" d="M304.844,-139.177C283.299,-148.615 257.215,-160.042 236.488,-169.122"/>
<polygon fill="black" stroke="black" points="234.838,-166.024 227.083,-173.242 237.647,-172.436 234.838,-166.024"/>
</g>
</g>
</svg>
