<?xml version="1.0" encoding="UTF-8" standalone="no"?>
<!DOCTYPE svg PUBLIC "-//W3C//DTD SVG 1.1//EN"
 "http://www.w3.org/Graphics/SVG/1.1/DTD/svg11.dtd">
<!-- Generated by graphviz version 2.38.0 (20140413.2041)
 -->
<!-- Title: %3 Pages: 1 -->
<svg width="688pt" height="490pt"
 viewBox="0.00 0.00 687.83 490.44" xmlns="http://www.w3.org/2000/svg" xmlns:xlink="http://www.w3.org/1999/xlink">
<g id="graph0" class="graph" transform="scale(1 1) rotate(0) translate(4 486.437)">
<title>%3</title>
<polygon fill="white" stroke="none" points="-4,4 -4,-486.437 683.833,-486.437 683.833,4 -4,4"/>
<text text-anchor="middle" x="339.916" y="-7.4" font-family="Times,serif" font-size="12.00">the echOmmunity</text>
<!-- medical -->
<g id="node1" class="node"><title>medical</title>
<polygon fill="blue" stroke="black" points="591.742,-220.586 505.742,-220.586 505.742,-184.586 591.742,-184.586 591.742,-220.586"/>
<text text-anchor="middle" x="548.742" y="-196.986" font-family="Times,serif" font-size="22.00">medical</text>
</g>
<!-- benchoufi -->
<g id="node2" class="node"><title>benchoufi</title>
<ellipse fill="yellow" stroke="black" cx="316.453" cy="-322.625" rx="46.2923" ry="18"/>
<text text-anchor="middle" x="316.453" y="-318.925" font-family="Times,serif" font-size="14.00">benchoufi</text>
</g>
<!-- medical&#45;&gt;benchoufi -->
<g id="edge1" class="edge"><title>medical&#45;&gt;benchoufi</title>
<path fill="none" stroke="black" d="M513.715,-220.687C470.526,-243.006 397.447,-280.77 353.396,-303.534"/>
<polygon fill="black" stroke="black" points="351.735,-300.453 344.458,-308.153 354.949,-306.671 351.735,-300.453"/>
</g>
<!-- olivier -->
<g id="node3" class="node"><title>olivier</title>
<ellipse fill="yellow" stroke="black" cx="231.148" cy="-88.2509" rx="33.5952" ry="18"/>
<text text-anchor="middle" x="231.148" y="-84.5509" font-family="Times,serif" font-size="14.00">olivier</text>
</g>
<!-- medical&#45;&gt;olivier -->
<g id="edge2" class="edge"><title>medical&#45;&gt;olivier</title>
<path fill="none" stroke="black" d="M531.703,-184.385C518.458,-171.31 498.975,-154.289 478.681,-144.276 412.14,-111.446 326.032,-97.565 274.892,-91.9093"/>
<polygon fill="black" stroke="black" points="275.149,-88.4171 264.838,-90.854 274.418,-95.3789 275.149,-88.4171"/>
</g>
<!-- brunocp -->
<g id="node4" class="node"><title>brunocp</title>
<ellipse fill="yellow" stroke="black" cx="640.186" cy="-267.767" rx="39.7935" ry="18"/>
<text text-anchor="middle" x="640.186" y="-264.067" font-family="Times,serif" font-size="14.00">brunocp</text>
</g>
<!-- medical&#45;&gt;brunocp -->
<g id="edge3" class="edge"><title>medical&#45;&gt;brunocp</title>
<path fill="none" stroke="black" d="M574.215,-220.743C585.526,-228.805 598.91,-238.345 610.657,-246.718"/>
<polygon fill="black" stroke="black" points="608.693,-249.617 618.868,-252.571 612.756,-243.916 608.693,-249.617"/>
</g>
<!-- luc -->
<g id="node5" class="node"><title>luc</title>
<ellipse fill="yellow" stroke="black" cx="316.453" cy="-39" rx="27" ry="18"/>
<text text-anchor="middle" x="316.453" y="-35.3" font-family="Times,serif" font-size="14.00">luc</text>
</g>
<!-- medical&#45;&gt;luc -->
<g id="edge4" class="edge"><title>medical&#45;&gt;luc</title>
<path fill="none" stroke="black" d="M528.414,-184.575C514.699,-172.699 496.009,-157.041 478.681,-144.276 433.585,-111.059 378.376,-76.4302 345.382,-56.334"/>
<polygon fill="black" stroke="black" points="347.058,-53.2568 336.692,-51.0644 343.428,-59.2423 347.058,-53.2568"/>
</g>
<!-- rbo -->
<g id="node6" class="node"><title>rbo</title>
<ellipse fill="yellow" stroke="black" cx="413.459" cy="-56.1047" rx="27" ry="18"/>
<text text-anchor="middle" x="413.459" y="-52.4047" font-family="Times,serif" font-size="14.00">rbo</text>
</g>
<!-- medical&#45;&gt;rbo -->
<g id="edge5" class="edge"><title>medical&#45;&gt;rbo</title>
<path fill="none" stroke="black" d="M531.882,-184.33C507.28,-157.691 461.555,-108.183 434.691,-79.0942"/>
<polygon fill="black" stroke="black" points="437.003,-76.4389 427.647,-71.4673 431.86,-81.1882 437.003,-76.4389"/>
</g>
<!-- posts -->
<g id="node7" class="node"><title>posts</title>
<polygon fill="blue" stroke="black" points="480.459,-385.874 418.459,-385.874 418.459,-349.874 480.459,-349.874 480.459,-385.874"/>
<text text-anchor="middle" x="449.459" y="-362.274" font-family="Times,serif" font-size="22.00">posts</text>
</g>
<!-- posts&#45;&gt;benchoufi -->
<g id="edge6" class="edge"><title>posts&#45;&gt;benchoufi</title>
<path fill="none" stroke="black" d="M418.275,-357.265C401.275,-351.481 379.937,-344.222 361.192,-337.845"/>
<polygon fill="black" stroke="black" points="362.257,-334.51 351.663,-334.603 360.003,-341.137 362.257,-334.51"/>
</g>
<!-- posts&#45;&gt;olivier -->
<g id="edge8" class="edge"><title>posts&#45;&gt;olivier</title>
<path fill="none" stroke="black" d="M435.482,-349.87C409.92,-316.955 353.904,-244.875 306.501,-184.238 287.519,-159.957 265.778,-132.276 250.543,-112.9"/>
<polygon fill="black" stroke="black" points="253.17,-110.578 244.237,-104.882 247.668,-114.906 253.17,-110.578"/>
</g>
<!-- posts&#45;&gt;luc -->
<g id="edge7" class="edge"><title>posts&#45;&gt;luc</title>
<path fill="none" stroke="black" d="M442.118,-349.724C419.993,-295.017 353.859,-131.49 327.487,-66.2821"/>
<polygon fill="black" stroke="black" points="330.603,-64.6509 323.609,-56.6926 324.113,-67.2754 330.603,-64.6509"/>
</g>
<!-- posts&#45;&gt;rbo -->
<g id="edge9" class="edge"><title>posts&#45;&gt;rbo</title>
<path fill="none" stroke="black" d="M441.248,-349.6C425.166,-311.8 391.636,-222.046 398.281,-144.276 400.011,-124.027 403.937,-101.443 407.363,-84.2016"/>
<polygon fill="black" stroke="black" points="410.829,-84.7242 409.407,-74.2251 403.971,-83.319 410.829,-84.7242"/>
</g>
<!-- hackolite -->
<g id="node8" class="node"><title>hackolite</title>
<ellipse fill="yellow" stroke="black" cx="485.459" cy="-430.228" rx="42.7926" ry="18"/>
<text text-anchor="middle" x="485.459" y="-426.528" font-family="Times,serif" font-size="14.00">hackolite</text>
</g>
<!-- posts&#45;&gt;hackolite -->
<g id="edge10" class="edge"><title>posts&#45;&gt;hackolite</title>
<path fill="none" stroke="black" d="M459.871,-385.909C463.033,-391.385 466.577,-397.523 469.996,-403.446"/>
<polygon fill="black" stroke="black" points="467.163,-405.538 475.194,-412.448 473.225,-402.038 467.163,-405.538"/>
</g>
<!-- legal -->
<g id="node9" class="node"><title>legal</title>
<polygon fill="blue" stroke="black" points="303.301,-223.438 244.301,-223.438 244.301,-187.438 303.301,-187.438 303.301,-223.438"/>
<text text-anchor="middle" x="273.801" y="-199.838" font-family="Times,serif" font-size="22.00">legal</text>
</g>
<!-- legal&#45;&gt;benchoufi -->
<g id="edge14" class="edge"><title>legal&#45;&gt;benchoufi</title>
<path fill="none" stroke="black" d="M280.372,-223.491C287.343,-242.644 298.439,-273.131 306.487,-295.243"/>
<polygon fill="black" stroke="black" points="303.236,-296.543 309.945,-304.743 309.814,-294.149 303.236,-296.543"/>
</g>
<!-- legal&#45;&gt;olivier -->
<g id="edge12" class="edge"><title>legal&#45;&gt;olivier</title>
<path fill="none" stroke="black" d="M267.23,-187.384C260.259,-168.232 249.162,-137.744 241.114,-115.632"/>
<polygon fill="black" stroke="black" points="244.366,-114.333 237.657,-106.133 237.788,-116.727 244.366,-114.333"/>
</g>
<!-- legal&#45;&gt;luc -->
<g id="edge11" class="edge"><title>legal&#45;&gt;luc</title>
<path fill="none" stroke="black" d="M278.447,-187.309C285.902,-158.219 300.586,-100.915 309.36,-66.6813"/>
<polygon fill="black" stroke="black" points="312.786,-67.4102 311.878,-56.8543 306.005,-65.6724 312.786,-67.4102"/>
</g>
<!-- legal&#45;&gt;rbo -->
<g id="edge13" class="edge"><title>legal&#45;&gt;rbo</title>
<path fill="none" stroke="black" d="M290.647,-187.425C316.087,-160.222 364.288,-108.682 392.139,-78.9018"/>
<polygon fill="black" stroke="black" points="394.813,-81.1667 399.087,-71.4722 389.7,-76.3853 394.813,-81.1667"/>
</g>
<!-- eiffel -->
<g id="node10" class="node"><title>eiffel</title>
<ellipse fill="yellow" stroke="black" cx="345.312" cy="-186.642" rx="29.4969" ry="18"/>
<text text-anchor="middle" x="345.312" y="-182.942" font-family="Times,serif" font-size="14.00">eiffel</text>
</g>
<!-- legal&#45;&gt;eiffel -->
<g id="edge15" class="edge"><title>legal&#45;&gt;eiffel</title>
<path fill="none" stroke="black" d="M303.714,-197.576C305.197,-197.186 306.693,-196.793 308.194,-196.398"/>
<polygon fill="black" stroke="black" points="309.246,-199.741 318.028,-193.814 307.467,-192.971 309.246,-199.741"/>
</g>
<!-- hardware -->
<g id="node11" class="node"><title>hardware</title>
<polygon fill="blue" stroke="black" points="353.451,-411.531 254.451,-411.531 254.451,-375.531 353.451,-375.531 353.451,-411.531"/>
<text text-anchor="middle" x="303.951" y="-387.931" font-family="Times,serif" font-size="22.00">hardware</text>
</g>
<!-- hardware&#45;&gt;benchoufi -->
<g id="edge18" class="edge"><title>hardware&#45;&gt;benchoufi</title>
<path fill="none" stroke="black" d="M307.17,-375.271C308.473,-367.885 310.007,-359.185 311.448,-351.008"/>
<polygon fill="black" stroke="black" points="314.911,-351.525 313.201,-341.069 308.018,-350.31 314.911,-351.525"/>
</g>
<!-- hardware&#45;&gt;olivier -->
<g id="edge17" class="edge"><title>hardware&#45;&gt;olivier</title>
<path fill="none" stroke="black" d="M293.733,-375.286C286.133,-361.204 275.878,-341.076 268.707,-322.625 252.628,-281.249 248.87,-270.343 241.101,-226.638 234.402,-188.952 232.185,-144.731 231.466,-116.608"/>
<polygon fill="black" stroke="black" points="234.959,-116.237 231.253,-106.312 227.961,-116.383 234.959,-116.237"/>
</g>
<!-- hardware&#45;&gt;luc -->
<g id="edge16" class="edge"><title>hardware&#45;&gt;luc</title>
<path fill="none" stroke="black" d="M289.709,-375.473C280.3,-361.81 269.548,-342.127 268.707,-322.625 266.732,-276.819 296.762,-271.44 306.501,-226.638 318.578,-171.077 318.823,-104.194 317.75,-67.161"/>
<polygon fill="black" stroke="black" points="321.246,-66.9798 317.403,-57.1063 314.25,-67.2209 321.246,-66.9798"/>
</g>
<!-- hardware&#45;&gt;rbo -->
<g id="edge19" class="edge"><title>hardware&#45;&gt;rbo</title>
<path fill="none" stroke="black" d="M324.163,-375.345C337.629,-362.067 354.563,-342.906 364.199,-322.625 369.316,-311.855 397.217,-151.024 408.61,-84.5385"/>
<polygon fill="black" stroke="black" points="412.116,-84.8011 410.352,-74.3541 405.216,-83.6206 412.116,-84.8011"/>
</g>
<!-- jerome -->
<g id="node12" class="node"><title>jerome</title>
<ellipse fill="yellow" stroke="black" cx="291.448" cy="-464.437" rx="35.9954" ry="18"/>
<text text-anchor="middle" x="291.448" y="-460.737" font-family="Times,serif" font-size="14.00">jerome</text>
</g>
<!-- hardware&#45;&gt;jerome -->
<g id="edge20" class="edge"><title>hardware&#45;&gt;jerome</title>
<path fill="none" stroke="black" d="M300.731,-411.791C299.408,-419.292 297.847,-428.149 296.385,-436.436"/>
<polygon fill="black" stroke="black" points="292.903,-436.028 294.614,-446.484 299.797,-437.244 292.903,-436.028"/>
</g>
<!-- design -->
<g id="node13" class="node"><title>design</title>
<polygon fill="blue" stroke="black" points="475.481,-183.476 401.481,-183.476 401.481,-147.476 475.481,-147.476 475.481,-183.476"/>
<text text-anchor="middle" x="438.481" y="-159.876" font-family="Times,serif" font-size="22.00">design</text>
</g>
<!-- design&#45;&gt;benchoufi -->
<g id="edge21" class="edge"><title>design&#45;&gt;benchoufi</title>
<path fill="none" stroke="black" d="M424.483,-183.503C402.76,-211.478 360.863,-265.434 336.114,-297.306"/>
<polygon fill="black" stroke="black" points="333.285,-295.242 329.916,-305.287 338.814,-299.535 333.285,-295.242"/>
</g>
<!-- design&#45;&gt;olivier -->
<g id="edge24" class="edge"><title>design&#45;&gt;olivier</title>
<path fill="none" stroke="black" d="M401.414,-151.67C363.884,-137.691 306.16,-116.191 268.521,-102.171"/>
<polygon fill="black" stroke="black" points="269.533,-98.8133 258.94,-98.6026 267.09,-105.373 269.533,-98.8133"/>
</g>
<!-- design&#45;&gt;luc -->
<g id="edge22" class="edge"><title>design&#45;&gt;luc</title>
<path fill="none" stroke="black" d="M420.997,-147.355C399.233,-124.797 362.048,-86.2574 338.392,-61.7389"/>
<polygon fill="black" stroke="black" points="340.686,-59.0755 331.224,-54.3091 335.649,-63.9359 340.686,-59.0755"/>
</g>
<!-- design&#45;&gt;rbo -->
<g id="edge23" class="edge"><title>design&#45;&gt;rbo</title>
<path fill="none" stroke="black" d="M434.349,-147.416C430.401,-130.159 424.393,-103.897 419.831,-83.96"/>
<polygon fill="black" stroke="black" points="423.239,-83.1596 417.597,-74.192 416.415,-84.7208 423.239,-83.1596"/>
</g>
<!-- design&#45;&gt;eiffel -->
<g id="edge25" class="edge"><title>design&#45;&gt;eiffel</title>
<path fill="none" stroke="black" d="M401.39,-173.903C395.278,-175.291 388.939,-176.731 382.817,-178.122"/>
<polygon fill="black" stroke="black" points="381.775,-174.77 372.799,-180.398 383.326,-181.596 381.775,-174.77"/>
</g>
<!-- community -->
<g id="node14" class="node"><title>community</title>
<polygon fill="blue" stroke="black" points="234.993,-337.654 116.993,-337.654 116.993,-301.654 234.993,-301.654 234.993,-337.654"/>
<text text-anchor="middle" x="175.993" y="-314.054" font-family="Times,serif" font-size="22.00">community</text>
</g>
<!-- community&#45;&gt;benchoufi -->
<g id="edge26" class="edge"><title>community&#45;&gt;benchoufi</title>
<path fill="none" stroke="black" d="M235.154,-320.905C243.378,-321.079 251.809,-321.258 259.982,-321.43"/>
<polygon fill="black" stroke="black" points="260.089,-324.933 270.16,-321.646 260.237,-317.935 260.089,-324.933"/>
</g>
<!-- community&#45;&gt;olivier -->
<g id="edge27" class="edge"><title>community&#45;&gt;olivier</title>
<path fill="none" stroke="black" d="M180.321,-301.497C189.927,-261.196 213.08,-164.058 224.521,-116.055"/>
<polygon fill="black" stroke="black" points="227.926,-116.863 226.84,-106.324 221.117,-115.24 227.926,-116.863"/>
</g>
<!-- community&#45;&gt;luc -->
<g id="edge28" class="edge"><title>community&#45;&gt;luc</title>
<path fill="none" stroke="black" d="M184.456,-301.608C196.714,-275.571 220.23,-226.008 241.101,-184.238 261.976,-142.459 287.119,-94.4371 302.436,-65.4244"/>
<polygon fill="black" stroke="black" points="305.654,-66.8268 307.234,-56.3505 299.466,-63.5548 305.654,-66.8268"/>
</g>
<!-- community&#45;&gt;rbo -->
<g id="edge29" class="edge"><title>community&#45;&gt;rbo</title>
<path fill="none" stroke="black" d="M215.661,-301.626C245.365,-286.032 284.518,-260.633 306.501,-226.638 316.347,-211.411 307.609,-203.411 314.464,-186.624 332.024,-143.622 367.471,-102.365 390.835,-78.1286"/>
<polygon fill="black" stroke="black" points="393.447,-80.464 397.958,-70.8773 388.453,-75.5586 393.447,-80.464"/>
</g>
<!-- emilie -->
<g id="node15" class="node"><title>emilie</title>
<ellipse fill="yellow" stroke="black" cx="120.838" cy="-365.935" rx="33.2948" ry="18"/>
<text text-anchor="middle" x="120.838" y="-362.235" font-family="Times,serif" font-size="14.00">emilie</text>
</g>
<!-- community&#45;&gt;emilie -->
<g id="edge30" class="edge"><title>community&#45;&gt;emilie</title>
<path fill="none" stroke="black" d="M154.511,-337.68C152.129,-339.679 149.683,-341.731 147.249,-343.773"/>
<polygon fill="black" stroke="black" points="144.543,-341.476 139.132,-350.585 149.042,-346.838 144.543,-341.476"/>
</g>
<!-- software -->
<g id="node16" class="node"><title>software</title>
<polygon fill="blue" stroke="black" points="180.632,-188.062 88.6318,-188.062 88.6318,-152.062 180.632,-152.062 180.632,-188.062"/>
<text text-anchor="middle" x="134.632" y="-164.462" font-family="Times,serif" font-size="22.00">software</text>
</g>
<!-- software&#45;&gt;benchoufi -->
<g id="edge31" class="edge"><title>software&#45;&gt;benchoufi</title>
<path fill="none" stroke="black" d="M156.203,-188.162C189.348,-215.973 252.768,-269.187 289.095,-299.669"/>
<polygon fill="black" stroke="black" points="286.938,-302.428 296.848,-306.174 291.437,-297.065 286.938,-302.428"/>
</g>
<!-- software&#45;&gt;olivier -->
<g id="edge33" class="edge"><title>software&#45;&gt;olivier</title>
<path fill="none" stroke="black" d="M156.052,-151.905C170.618,-139.558 189.967,-123.157 205.377,-110.096"/>
<polygon fill="black" stroke="black" points="207.664,-112.745 213.03,-103.609 203.138,-107.405 207.664,-112.745"/>
</g>
<!-- software&#45;&gt;luc -->
<g id="edge32" class="edge"><title>software&#45;&gt;luc</title>
<path fill="none" stroke="black" d="M173.685,-151.99C198.466,-139.636 230.567,-121.948 256.177,-102.11 271.014,-90.6176 285.605,-75.4714 296.714,-62.8978"/>
<polygon fill="black" stroke="black" points="299.588,-64.9252 303.479,-55.0709 294.292,-60.3477 299.588,-64.9252"/>
</g>
<!-- software&#45;&gt;rbo -->
<g id="edge35" class="edge"><title>software&#45;&gt;rbo</title>
<path fill="none" stroke="black" d="M178.813,-152.005C235.101,-129 331.064,-89.7793 381.041,-69.3539"/>
<polygon fill="black" stroke="black" points="382.465,-72.553 390.397,-65.5298 379.816,-66.0733 382.465,-72.553"/>
</g>
<!-- djabbz -->
<g id="node17" class="node"><title>djabbz</title>
<ellipse fill="yellow" stroke="black" cx="34.4469" cy="-144.699" rx="34.394" ry="18"/>
<text text-anchor="middle" x="34.4469" y="-140.999" font-family="Times,serif" font-size="14.00">djabbz</text>
</g>
<!-- software&#45;&gt;djabbz -->
<g id="edge34" class="edge"><title>software&#45;&gt;djabbz</title>
<path fill="none" stroke="black" d="M88.3517,-158.346C84.0258,-157.251 79.6618,-156.146 75.3896,-155.064"/>
<polygon fill="black" stroke="black" points="76.2025,-151.66 65.6493,-152.598 74.4846,-158.446 76.2025,-151.66"/>
</g>
</g>
</svg>
