<?xml version="1.0" encoding="UTF-8" standalone="no"?>
<!DOCTYPE svg PUBLIC "-//W3C//DTD SVG 1.1//EN"
 "http://www.w3.org/Graphics/SVG/1.1/DTD/svg11.dtd">
<!-- Generated by graphviz version 2.38.0 (20140413.2041)
 -->
<!-- Title: %3 Pages: 1 -->
<svg width="764pt" height="549pt"
 viewBox="0.00 0.00 764.38 549.47" xmlns="http://www.w3.org/2000/svg" xmlns:xlink="http://www.w3.org/1999/xlink">
<g id="graph0" class="graph" transform="scale(1 1) rotate(0) translate(4 545.474)">
<title>%3</title>
<polygon fill="white" stroke="none" points="-4,4 -4,-545.474 760.379,-545.474 760.379,4 -4,4"/>
<text text-anchor="middle" x="378.19" y="-7.4" font-family="Times,serif" font-size="12.00">the echOmmunity</text>
<!-- medical -->
<g id="node1" class="node"><title>medical</title>
<polygon fill="blue" stroke="black" points="754.127,-121.511 668.127,-121.511 668.127,-85.5107 754.127,-85.5107 754.127,-121.511"/>
<text text-anchor="middle" x="711.127" y="-97.9107" font-family="Times,serif" font-size="22.00">medical</text>
</g>
<!-- olivier -->
<g id="node2" class="node"><title>olivier</title>
<ellipse fill="yellow" stroke="black" cx="369.014" cy="-327.836" rx="33.5952" ry="18"/>
<text text-anchor="middle" x="369.014" y="-324.136" font-family="Times,serif" font-size="14.00">olivier</text>
</g>
<!-- medical&#45;&gt;olivier -->
<g id="edge1" class="edge"><title>medical&#45;&gt;olivier</title>
<path fill="none" stroke="black" d="M697.589,-121.919C676.83,-149.077 634.717,-200.106 589.096,-232.056 531.539,-272.363 454.318,-301.127 408.311,-316.067"/>
<polygon fill="black" stroke="black" points="407.17,-312.756 398.708,-319.131 409.298,-319.425 407.17,-312.756"/>
</g>
<!-- brunocp -->
<g id="node3" class="node"><title>brunocp</title>
<ellipse fill="yellow" stroke="black" cx="716.733" cy="-336.277" rx="39.7935" ry="18"/>
<text text-anchor="middle" x="716.733" y="-332.577" font-family="Times,serif" font-size="14.00">brunocp</text>
</g>
<!-- medical&#45;&gt;brunocp -->
<g id="edge2" class="edge"><title>medical&#45;&gt;brunocp</title>
<path fill="none" stroke="black" d="M711.567,-121.775C712.541,-162.228 714.887,-259.614 716.052,-308.004"/>
<polygon fill="black" stroke="black" points="712.555,-308.184 716.295,-318.097 719.553,-308.015 712.555,-308.184"/>
</g>
<!-- benchoufi -->
<g id="node4" class="node"><title>benchoufi</title>
<ellipse fill="yellow" stroke="black" cx="206.973" cy="-45.5189" rx="46.2923" ry="18"/>
<text text-anchor="middle" x="206.973" y="-41.8189" font-family="Times,serif" font-size="14.00">benchoufi</text>
</g>
<!-- medical&#45;&gt;benchoufi -->
<g id="edge3" class="edge"><title>medical&#45;&gt;benchoufi</title>
<path fill="none" stroke="black" d="M667.942,-99.8004C603.41,-94.1158 478.033,-82.5299 371.821,-69.4896 334.393,-64.8943 292.327,-58.7616 260.057,-53.8498"/>
<polygon fill="black" stroke="black" points="260.357,-50.3549 249.942,-52.3014 259.297,-57.2743 260.357,-50.3549"/>
</g>
<!-- rbo -->
<g id="node5" class="node"><title>rbo</title>
<ellipse fill="yellow" stroke="black" cx="371.872" cy="-49.8896" rx="27" ry="18"/>
<text text-anchor="middle" x="371.872" y="-46.1896" font-family="Times,serif" font-size="14.00">rbo</text>
</g>
<!-- medical&#45;&gt;rbo -->
<g id="edge4" class="edge"><title>medical&#45;&gt;rbo</title>
<path fill="none" stroke="black" d="M667.816,-96.6651C600.301,-85.994 471.193,-65.5879 408.22,-55.6346"/>
<polygon fill="black" stroke="black" points="408.764,-52.1772 398.34,-54.073 407.671,-59.0914 408.764,-52.1772"/>
</g>
<!-- luc -->
<g id="node6" class="node"><title>luc</title>
<ellipse fill="yellow" stroke="black" cx="542.41" cy="-39" rx="27" ry="18"/>
<text text-anchor="middle" x="542.41" y="-35.3" font-family="Times,serif" font-size="14.00">luc</text>
</g>
<!-- medical&#45;&gt;luc -->
<g id="edge5" class="edge"><title>medical&#45;&gt;luc</title>
<path fill="none" stroke="black" d="M668.116,-87.065C639.375,-76.0755 602.126,-61.833 575.655,-51.7116"/>
<polygon fill="black" stroke="black" points="576.668,-48.3519 566.078,-48.0496 574.168,-54.8902 576.668,-48.3519"/>
</g>
<!-- posts -->
<g id="node7" class="node"><title>posts</title>
<polygon fill="blue" stroke="black" points="304.838,-275.722 242.838,-275.722 242.838,-239.722 304.838,-239.722 304.838,-275.722"/>
<text text-anchor="middle" x="273.838" y="-252.122" font-family="Times,serif" font-size="22.00">posts</text>
</g>
<!-- posts&#45;&gt;olivier -->
<g id="edge8" class="edge"><title>posts&#45;&gt;olivier</title>
<path fill="none" stroke="black" d="M298.348,-275.778C311.27,-285.297 327.187,-297.023 340.642,-306.935"/>
<polygon fill="black" stroke="black" points="338.944,-310.031 349.071,-313.145 343.096,-304.395 338.944,-310.031"/>
</g>
<!-- posts&#45;&gt;benchoufi -->
<g id="edge6" class="edge"><title>posts&#45;&gt;benchoufi</title>
<path fill="none" stroke="black" d="M268.137,-239.63C256.442,-202.514 229.668,-117.545 215.745,-73.3602"/>
<polygon fill="black" stroke="black" points="219.003,-72.0513 212.659,-63.5654 212.326,-74.1551 219.003,-72.0513"/>
</g>
<!-- posts&#45;&gt;rbo -->
<g id="edge9" class="edge"><title>posts&#45;&gt;rbo</title>
<path fill="none" stroke="black" d="M282.367,-239.642C299.697,-202.901 339.097,-119.372 359.346,-76.4451"/>
<polygon fill="black" stroke="black" points="362.609,-77.7317 363.71,-67.1942 356.278,-74.7453 362.609,-77.7317"/>
</g>
<!-- posts&#45;&gt;luc -->
<g id="edge7" class="edge"><title>posts&#45;&gt;luc</title>
<path fill="none" stroke="black" d="M296.275,-239.45C345.955,-198.991 464.964,-102.071 517.155,-59.5674"/>
<polygon fill="black" stroke="black" points="519.683,-62.0225 525.227,-52.9939 515.263,-56.5947 519.683,-62.0225"/>
</g>
<!-- hackolite -->
<g id="node8" class="node"><title>hackolite</title>
<ellipse fill="yellow" stroke="black" cx="396.519" cy="-198.583" rx="42.7926" ry="18"/>
<text text-anchor="middle" x="396.519" y="-194.883" font-family="Times,serif" font-size="14.00">hackolite</text>
</g>
<!-- posts&#45;&gt;hackolite -->
<g id="edge10" class="edge"><title>posts&#45;&gt;hackolite</title>
<path fill="none" stroke="black" d="M305.113,-242.646C321.525,-234.734 341.753,-224.983 359.003,-216.668"/>
<polygon fill="black" stroke="black" points="360.75,-219.711 368.238,-212.216 357.71,-213.406 360.75,-219.711"/>
</g>
<!-- legal -->
<g id="node9" class="node"><title>legal</title>
<polygon fill="blue" stroke="black" points="544.628,-389.932 485.628,-389.932 485.628,-353.932 544.628,-353.932 544.628,-389.932"/>
<text text-anchor="middle" x="515.128" y="-366.332" font-family="Times,serif" font-size="22.00">legal</text>
</g>
<!-- legal&#45;&gt;olivier -->
<g id="edge12" class="edge"><title>legal&#45;&gt;olivier</title>
<path fill="none" stroke="black" d="M485.56,-363.008C463.279,-356.285 432.514,-347 408.188,-339.658"/>
<polygon fill="black" stroke="black" points="409.123,-336.285 398.539,-336.746 407.101,-342.986 409.123,-336.285"/>
</g>
<!-- legal&#45;&gt;benchoufi -->
<g id="edge14" class="edge"><title>legal&#45;&gt;benchoufi</title>
<path fill="none" stroke="black" d="M498.121,-353.918C446.212,-298.933 289.743,-133.194 230.262,-70.1884"/>
<polygon fill="black" stroke="black" points="232.588,-67.5535 223.178,-62.6847 227.498,-72.3589 232.588,-67.5535"/>
</g>
<!-- legal&#45;&gt;rbo -->
<g id="edge13" class="edge"><title>legal&#45;&gt;rbo</title>
<path fill="none" stroke="black" d="M507.525,-353.634C494.302,-321.93 466.083,-254.79 441.015,-198.601 421.839,-155.617 398.596,-106.135 384.536,-76.4712"/>
<polygon fill="black" stroke="black" points="387.589,-74.7417 380.138,-67.2092 381.265,-77.7439 387.589,-74.7417"/>
</g>
<!-- legal&#45;&gt;luc -->
<g id="edge11" class="edge"><title>legal&#45;&gt;luc</title>
<path fill="none" stroke="black" d="M528.567,-353.674C546.509,-328.049 577.386,-279.247 589.096,-232.056 603.884,-172.454 575.505,-102.351 556.861,-65.2003"/>
<polygon fill="black" stroke="black" points="559.837,-63.3352 552.134,-56.0611 553.619,-66.5513 559.837,-63.3352"/>
</g>
<!-- eiffel -->
<g id="node10" class="node"><title>eiffel</title>
<ellipse fill="yellow" stroke="black" cx="637.804" cy="-512.17" rx="29.4969" ry="18"/>
<text text-anchor="middle" x="637.804" y="-508.47" font-family="Times,serif" font-size="14.00">eiffel</text>
</g>
<!-- legal&#45;&gt;eiffel -->
<g id="edge15" class="edge"><title>legal&#45;&gt;eiffel</title>
<path fill="none" stroke="black" d="M530.915,-389.979C552.825,-415.025 592.5,-460.38 616.863,-488.231"/>
<polygon fill="black" stroke="black" points="614.38,-490.709 623.599,-495.931 619.649,-486.1 614.38,-490.709"/>
</g>
<!-- hardware -->
<g id="node11" class="node"><title>hardware</title>
<polygon fill="blue" stroke="black" points="427.14,-464.327 328.14,-464.327 328.14,-428.327 427.14,-428.327 427.14,-464.327"/>
<text text-anchor="middle" x="377.64" y="-440.727" font-family="Times,serif" font-size="22.00">hardware</text>
</g>
<!-- hardware&#45;&gt;olivier -->
<g id="edge17" class="edge"><title>hardware&#45;&gt;olivier</title>
<path fill="none" stroke="black" d="M376.311,-428.072C374.914,-408.881 372.698,-378.435 371.074,-356.128"/>
<polygon fill="black" stroke="black" points="374.548,-355.636 370.331,-345.917 367.566,-356.145 374.548,-355.636"/>
</g>
<!-- hardware&#45;&gt;benchoufi -->
<g id="edge19" class="edge"><title>hardware&#45;&gt;benchoufi</title>
<path fill="none" stroke="black" d="M370.302,-428.021C361.151,-404.881 345.291,-363.731 333.617,-327.836 320.583,-287.756 323.667,-275.663 308.038,-236.522 283.582,-175.274 245.057,-108.077 223.317,-71.9824"/>
<polygon fill="black" stroke="black" points="226.093,-69.8106 217.913,-63.0775 220.109,-73.4422 226.093,-69.8106"/>
</g>
<!-- hardware&#45;&gt;rbo -->
<g id="edge18" class="edge"><title>hardware&#45;&gt;rbo</title>
<path fill="none" stroke="black" d="M367.659,-428.15C355.982,-405.475 337.717,-365.138 333.617,-327.836 323.507,-235.849 349.472,-127.313 363.536,-77.4538"/>
<polygon fill="black" stroke="black" points="366.931,-78.3105 366.339,-67.7322 360.205,-76.3711 366.931,-78.3105"/>
</g>
<!-- hardware&#45;&gt;luc -->
<g id="edge16" class="edge"><title>hardware&#45;&gt;luc</title>
<path fill="none" stroke="black" d="M382.758,-428.247C394.98,-385.832 427.632,-276.926 464.696,-189.656 483.797,-144.68 510.811,-94.673 527.439,-65.0789"/>
<polygon fill="black" stroke="black" points="530.573,-66.6473 532.449,-56.22 524.48,-63.2011 530.573,-66.6473"/>
</g>
<!-- jerome -->
<g id="node12" class="node"><title>jerome</title>
<ellipse fill="yellow" stroke="black" cx="289.497" cy="-523.474" rx="35.9954" ry="18"/>
<text text-anchor="middle" x="289.497" y="-519.774" font-family="Times,serif" font-size="14.00">jerome</text>
</g>
<!-- hardware&#45;&gt;jerome -->
<g id="edge20" class="edge"><title>hardware&#45;&gt;jerome</title>
<path fill="none" stroke="black" d="M356.752,-464.61C344.357,-475.458 328.542,-489.3 315.363,-500.835"/>
<polygon fill="black" stroke="black" points="312.772,-498.452 307.552,-507.672 317.382,-503.719 312.772,-498.452"/>
</g>
<!-- design -->
<g id="node13" class="node"><title>design</title>
<polygon fill="blue" stroke="black" points="116.501,-457.389 42.5008,-457.389 42.5008,-421.389 116.501,-421.389 116.501,-457.389"/>
<text text-anchor="middle" x="79.5008" y="-433.789" font-family="Times,serif" font-size="22.00">design</text>
</g>
<!-- design&#45;&gt;olivier -->
<g id="edge24" class="edge"><title>design&#45;&gt;olivier</title>
<path fill="none" stroke="black" d="M116.757,-425.033C172.368,-403.606 276.472,-363.494 331.964,-342.112"/>
<polygon fill="black" stroke="black" points="333.339,-345.333 341.412,-338.472 330.823,-338.801 333.339,-345.333"/>
</g>
<!-- design&#45;&gt;benchoufi -->
<g id="edge21" class="edge"><title>design&#45;&gt;benchoufi</title>
<path fill="none" stroke="black" d="M79.9653,-421.164C81.4791,-380.94 87.9003,-281.992 115.045,-204.557 132.713,-154.155 166.605,-101.637 187.933,-71.3409"/>
<polygon fill="black" stroke="black" points="190.896,-73.2152 193.855,-63.0419 185.197,-69.1495 190.896,-73.2152"/>
</g>
<!-- design&#45;&gt;rbo -->
<g id="edge23" class="edge"><title>design&#45;&gt;rbo</title>
<path fill="none" stroke="black" d="M93.0161,-421.383C140.392,-358.268 299.003,-146.966 353.388,-74.5143"/>
<polygon fill="black" stroke="black" points="356.285,-76.4851 359.489,-66.3863 350.687,-72.2828 356.285,-76.4851"/>
</g>
<!-- design&#45;&gt;luc -->
<g id="edge22" class="edge"><title>design&#45;&gt;luc</title>
<path fill="none" stroke="black" d="M115.016,-421.249C163.48,-395.107 250.831,-342.881 308.038,-278.922 335.181,-248.575 328.089,-231.502 352.023,-198.565 356.998,-191.719 358.9,-190.488 365.084,-184.711 416.221,-136.944 480.648,-86.1417 516.065,-58.948"/>
<polygon fill="black" stroke="black" points="518.602,-61.4143 524.419,-52.5592 514.35,-55.854 518.602,-61.4143"/>
</g>
<!-- design&#45;&gt;eiffel -->
<g id="edge25" class="edge"><title>design&#45;&gt;eiffel</title>
<path fill="none" stroke="black" d="M116.565,-444.22C217.459,-457.373 496.328,-493.727 599.111,-507.126"/>
<polygon fill="black" stroke="black" points="598.694,-510.601 609.063,-508.423 599.599,-503.66 598.694,-510.601"/>
</g>
<!-- community -->
<g id="node14" class="node"><title>community</title>
<polygon fill="blue" stroke="black" points="585.896,-228.856 467.896,-228.856 467.896,-192.856 585.896,-192.856 585.896,-228.856"/>
<text text-anchor="middle" x="526.896" y="-205.256" font-family="Times,serif" font-size="22.00">community</text>
</g>
<!-- community&#45;&gt;olivier -->
<g id="edge27" class="edge"><title>community&#45;&gt;olivier</title>
<path fill="none" stroke="black" d="M502.573,-228.878C474.231,-249.877 427.467,-284.527 397.466,-306.755"/>
<polygon fill="black" stroke="black" points="395.056,-304.185 389.105,-312.95 399.224,-309.809 395.056,-304.185"/>
</g>
<!-- community&#45;&gt;benchoufi -->
<g id="edge26" class="edge"><title>community&#45;&gt;benchoufi</title>
<path fill="none" stroke="black" d="M492.049,-192.847C431.204,-161.402 306.148,-96.7728 243.883,-64.5942"/>
<polygon fill="black" stroke="black" points="245.298,-61.3858 234.807,-59.904 242.084,-67.6045 245.298,-61.3858"/>
</g>
<!-- community&#45;&gt;rbo -->
<g id="edge29" class="edge"><title>community&#45;&gt;rbo</title>
<path fill="none" stroke="black" d="M509.414,-192.704C480.97,-163.17 424.739,-104.783 393.71,-72.5647"/>
<polygon fill="black" stroke="black" points="396.218,-70.1237 386.76,-65.3488 391.176,-74.9795 396.218,-70.1237"/>
</g>
<!-- community&#45;&gt;luc -->
<g id="edge28" class="edge"><title>community&#45;&gt;luc</title>
<path fill="none" stroke="black" d="M528.527,-192.789C531.227,-162.877 536.647,-102.844 539.858,-67.2752"/>
<polygon fill="black" stroke="black" points="543.364,-67.3568 540.778,-57.0826 536.393,-66.7273 543.364,-67.3568"/>
</g>
<!-- community&#45;&gt;hackolite -->
<g id="edge30" class="edge"><title>community&#45;&gt;hackolite</title>
<path fill="none" stroke="black" d="M467.811,-205.294C461.509,-204.701 455.131,-204.1 448.914,-203.515"/>
<polygon fill="black" stroke="black" points="448.93,-200.001 438.646,-202.549 448.274,-206.97 448.93,-200.001"/>
</g>
<!-- software -->
<g id="node15" class="node"><title>software</title>
<polygon fill="blue" stroke="black" points="210.245,-243.757 118.245,-243.757 118.245,-207.757 210.245,-207.757 210.245,-243.757"/>
<text text-anchor="middle" x="164.245" y="-220.157" font-family="Times,serif" font-size="22.00">software</text>
</g>
<!-- software&#45;&gt;olivier -->
<g id="edge32" class="edge"><title>software&#45;&gt;olivier</title>
<path fill="none" stroke="black" d="M186.702,-243.868C201.207,-254.978 220.821,-268.938 239.638,-278.922 268.604,-294.291 303.48,-307.182 329.719,-315.865"/>
<polygon fill="black" stroke="black" points="328.73,-319.224 339.322,-318.983 330.892,-312.566 328.73,-319.224"/>
</g>
<!-- software&#45;&gt;benchoufi -->
<g id="edge31" class="edge"><title>software&#45;&gt;benchoufi</title>
<path fill="none" stroke="black" d="M168.577,-207.483C176.05,-175.96 191.413,-111.156 200.273,-73.7811"/>
<polygon fill="black" stroke="black" points="203.791,-74.1111 202.693,-63.5734 196.98,-72.4963 203.791,-74.1111"/>
</g>
<!-- software&#45;&gt;rbo -->
<g id="edge34" class="edge"><title>software&#45;&gt;rbo</title>
<path fill="none" stroke="black" d="M185.683,-207.598C224.536,-174.688 306.355,-105.384 347.359,-70.6527"/>
<polygon fill="black" stroke="black" points="349.623,-73.3224 354.991,-64.1884 345.098,-67.981 349.623,-73.3224"/>
</g>
<!-- software&#45;&gt;luc -->
<g id="edge33" class="edge"><title>software&#45;&gt;luc</title>
<path fill="none" stroke="black" d="M200.849,-207.68C275.026,-171.047 441.908,-88.6331 511.264,-54.3814"/>
<polygon fill="black" stroke="black" points="512.967,-57.4439 520.384,-49.8777 509.868,-51.1676 512.967,-57.4439"/>
</g>
<!-- djabbz -->
<g id="node16" class="node"><title>djabbz</title>
<ellipse fill="yellow" stroke="black" cx="34.4469" cy="-125.899" rx="34.394" ry="18"/>
<text text-anchor="middle" x="34.4469" y="-122.199" font-family="Times,serif" font-size="14.00">djabbz</text>
</g>
<!-- software&#45;&gt;djabbz -->
<g id="edge35" class="edge"><title>software&#45;&gt;djabbz</title>
<path fill="none" stroke="black" d="M140.74,-207.673C118.618,-190.654 85.4827,-165.162 62.0997,-147.173"/>
<polygon fill="black" stroke="black" points="64.0247,-144.238 53.9646,-140.914 59.7563,-149.786 64.0247,-144.238"/>
</g>
</g>
</svg>
