<?xml version="1.0" encoding="UTF-8" standalone="no"?>
<!DOCTYPE svg PUBLIC "-//W3C//DTD SVG 1.1//EN"
 "http://www.w3.org/Graphics/SVG/1.1/DTD/svg11.dtd">
<!-- Generated by graphviz version 2.38.0 (20140413.2041)
 -->
<!-- Title: %3 Pages: 1 -->
<svg width="657pt" height="439pt"
 viewBox="0.00 0.00 657.29 439.35" xmlns="http://www.w3.org/2000/svg" xmlns:xlink="http://www.w3.org/1999/xlink">
<g id="graph0" class="graph" transform="scale(1 1) rotate(0) translate(4 435.346)">
<title>%3</title>
<polygon fill="white" stroke="none" points="-4,4 -4,-435.346 653.292,-435.346 653.292,4 -4,4"/>
<text text-anchor="middle" x="324.646" y="-7.4" font-family="Times,serif" font-size="12.00">the echOmmunity</text>
<!-- medical -->
<g id="node1" class="node"><title>medical</title>
<polygon fill="blue" stroke="black" points="521.139,-194.003 435.139,-194.003 435.139,-158.003 521.139,-158.003 521.139,-194.003"/>
<text text-anchor="middle" x="478.139" y="-170.403" font-family="Times,serif" font-size="22.00">medical</text>
</g>
<!-- benchoufi -->
<g id="node2" class="node"><title>benchoufi</title>
<ellipse fill="yellow" stroke="black" cx="232.202" cy="-212.427" rx="46.2923" ry="18"/>
<text text-anchor="middle" x="232.202" y="-208.727" font-family="Times,serif" font-size="14.00">benchoufi</text>
</g>
<!-- medical&#45;&gt;benchoufi -->
<g id="edge1" class="edge"><title>medical&#45;&gt;benchoufi</title>
<path fill="none" stroke="black" d="M435.049,-186.696C421.409,-189.808 406.231,-192.989 392.2,-195.308 357.656,-201.017 318.586,-205.239 287.703,-208.062"/>
<polygon fill="black" stroke="black" points="287.211,-204.592 277.561,-208.965 287.832,-211.564 287.211,-204.592"/>
</g>
<!-- brunocp -->
<g id="node3" class="node"><title>brunocp</title>
<ellipse fill="yellow" stroke="black" cx="609.646" cy="-233.086" rx="39.7935" ry="18"/>
<text text-anchor="middle" x="609.646" y="-229.386" font-family="Times,serif" font-size="14.00">brunocp</text>
</g>
<!-- medical&#45;&gt;brunocp -->
<g id="edge2" class="edge"><title>medical&#45;&gt;brunocp</title>
<path fill="none" stroke="black" d="M519.749,-194.065C536.355,-201.273 555.348,-209.517 571.584,-216.564"/>
<polygon fill="black" stroke="black" points="570.219,-219.788 580.786,-220.559 573.007,-213.366 570.219,-219.788"/>
</g>
<!-- olivier -->
<g id="node4" class="node"><title>olivier</title>
<ellipse fill="yellow" stroke="black" cx="246.342" cy="-104.79" rx="33.5952" ry="18"/>
<text text-anchor="middle" x="246.342" y="-101.09" font-family="Times,serif" font-size="14.00">olivier</text>
</g>
<!-- medical&#45;&gt;olivier -->
<g id="edge3" class="edge"><title>medical&#45;&gt;olivier</title>
<path fill="none" stroke="black" d="M435.083,-162.776C392.266,-149.621 327.142,-129.613 285.677,-116.874"/>
<polygon fill="black" stroke="black" points="286.516,-113.471 275.929,-113.879 284.46,-120.162 286.516,-113.471"/>
</g>
<!-- emilie -->
<g id="node5" class="node"><title>emilie</title>
<ellipse fill="yellow" stroke="black" cx="315.73" cy="-39" rx="33.2948" ry="18"/>
<text text-anchor="middle" x="315.73" y="-35.3" font-family="Times,serif" font-size="14.00">emilie</text>
</g>
<!-- medical&#45;&gt;emilie -->
<g id="edge4" class="edge"><title>medical&#45;&gt;emilie</title>
<path fill="none" stroke="black" d="M456.573,-157.81C426.949,-132.821 373.726,-87.9234 341.872,-61.0527"/>
<polygon fill="black" stroke="black" points="343.777,-58.0806 333.877,-54.308 339.264,-63.4312 343.777,-58.0806"/>
</g>
<!-- luc -->
<g id="node6" class="node"><title>luc</title>
<ellipse fill="yellow" stroke="black" cx="439.187" cy="-50.2878" rx="27" ry="18"/>
<text text-anchor="middle" x="439.187" y="-46.5878" font-family="Times,serif" font-size="14.00">luc</text>
</g>
<!-- medical&#45;&gt;luc -->
<g id="edge5" class="edge"><title>medical&#45;&gt;luc</title>
<path fill="none" stroke="black" d="M472.558,-157.991C466.079,-137.08 455.319,-102.352 447.773,-77.9982"/>
<polygon fill="black" stroke="black" points="451.061,-76.7825 444.758,-68.2664 444.374,-78.8543 451.061,-76.7825"/>
</g>
<!-- posts -->
<g id="node7" class="node"><title>posts</title>
<polygon fill="blue" stroke="black" points="478.717,-322.329 416.717,-322.329 416.717,-286.329 478.717,-286.329 478.717,-322.329"/>
<text text-anchor="middle" x="447.717" y="-298.729" font-family="Times,serif" font-size="22.00">posts</text>
</g>
<!-- posts&#45;&gt;benchoufi -->
<g id="edge6" class="edge"><title>posts&#45;&gt;benchoufi</title>
<path fill="none" stroke="black" d="M417.94,-286.173C407.125,-279.939 394.68,-273.174 382.959,-267.757 348.625,-251.889 308.344,-237.3 278.06,-227.092"/>
<polygon fill="black" stroke="black" points="278.79,-223.646 268.196,-223.802 276.575,-230.286 278.79,-223.646"/>
</g>
<!-- posts&#45;&gt;olivier -->
<g id="edge8" class="edge"><title>posts&#45;&gt;olivier</title>
<path fill="none" stroke="black" d="M426.094,-286.106C401.382,-264.992 360.059,-228.804 326.8,-195.308 305.377,-173.734 282.485,-147.651 266.619,-129.037"/>
<polygon fill="black" stroke="black" points="269.2,-126.669 260.064,-121.303 263.859,-131.195 269.2,-126.669"/>
</g>
<!-- posts&#45;&gt;luc -->
<g id="edge7" class="edge"><title>posts&#45;&gt;luc</title>
<path fill="none" stroke="black" d="M444.223,-286.223C440.32,-264.994 434.246,-228.701 431.939,-197.203 430.563,-178.409 431.287,-173.637 431.939,-154.803 432.835,-128.953 434.972,-99.5699 436.695,-78.5567"/>
<polygon fill="black" stroke="black" points="440.199,-78.6522 437.55,-68.394 433.224,-78.0655 440.199,-78.6522"/>
</g>
<!-- rbo -->
<g id="node8" class="node"><title>rbo</title>
<ellipse fill="yellow" stroke="black" cx="596.684" cy="-63.5005" rx="27" ry="18"/>
<text text-anchor="middle" x="596.684" y="-59.8005" font-family="Times,serif" font-size="14.00">rbo</text>
</g>
<!-- posts&#45;&gt;rbo -->
<g id="edge9" class="edge"><title>posts&#45;&gt;rbo</title>
<path fill="none" stroke="black" d="M461.724,-286.232C477.664,-265.309 504.106,-229.589 524.339,-197.203 546.981,-160.963 569.921,-117.082 583.725,-89.7211"/>
<polygon fill="black" stroke="black" points="586.859,-91.2801 588.211,-80.772 580.601,-88.1431 586.859,-91.2801"/>
</g>
<!-- hackolite -->
<g id="node9" class="node"><title>hackolite</title>
<ellipse fill="yellow" stroke="black" cx="573.314" cy="-393.421" rx="42.7926" ry="18"/>
<text text-anchor="middle" x="573.314" y="-389.721" font-family="Times,serif" font-size="14.00">hackolite</text>
</g>
<!-- posts&#45;&gt;hackolite -->
<g id="edge10" class="edge"><title>posts&#45;&gt;hackolite</title>
<path fill="none" stroke="black" d="M473.133,-322.358C493.293,-336.659 521.534,-356.691 542.895,-371.843"/>
<polygon fill="black" stroke="black" points="541.112,-374.869 551.293,-377.8 545.162,-369.16 541.112,-374.869"/>
</g>
<!-- legal -->
<g id="node10" class="node"><title>legal</title>
<polygon fill="blue" stroke="black" points="389,-192.108 330,-192.108 330,-156.108 389,-156.108 389,-192.108"/>
<text text-anchor="middle" x="359.5" y="-168.508" font-family="Times,serif" font-size="22.00">legal</text>
</g>
<!-- legal&#45;&gt;benchoufi -->
<g id="edge14" class="edge"><title>legal&#45;&gt;benchoufi</title>
<path fill="none" stroke="black" d="M329.975,-182.995C314.749,-187.579 295.823,-193.276 278.69,-198.433"/>
<polygon fill="black" stroke="black" points="277.418,-195.161 268.851,-201.395 279.436,-201.864 277.418,-195.161"/>
</g>
<!-- legal&#45;&gt;olivier -->
<g id="edge12" class="edge"><title>legal&#45;&gt;olivier</title>
<path fill="none" stroke="black" d="M330.064,-156.076C313.93,-146.193 293.937,-133.946 277.535,-123.898"/>
<polygon fill="black" stroke="black" points="279.195,-120.811 268.84,-118.571 275.539,-126.78 279.195,-120.811"/>
</g>
<!-- legal&#45;&gt;emilie -->
<g id="edge15" class="edge"><title>legal&#45;&gt;emilie</title>
<path fill="none" stroke="black" d="M353.597,-155.887C346.148,-132.894 333.268,-93.1357 324.625,-66.4555"/>
<polygon fill="black" stroke="black" points="327.951,-65.3672 321.54,-56.9326 321.292,-67.5245 327.951,-65.3672"/>
</g>
<!-- legal&#45;&gt;luc -->
<g id="edge11" class="edge"><title>legal&#45;&gt;luc</title>
<path fill="none" stroke="black" d="M371.087,-156.104C384.713,-134.931 407.424,-99.6421 422.838,-75.6924"/>
<polygon fill="black" stroke="black" points="425.885,-77.4249 428.353,-67.1217 419.998,-73.6366 425.885,-77.4249"/>
</g>
<!-- legal&#45;&gt;rbo -->
<g id="edge13" class="edge"><title>legal&#45;&gt;rbo</title>
<path fill="none" stroke="black" d="M389.059,-160.323C434.043,-139.346 519.3,-99.5873 565.328,-78.1225"/>
<polygon fill="black" stroke="black" points="566.943,-81.2317 574.526,-73.8332 563.984,-74.8876 566.943,-81.2317"/>
</g>
<!-- hardware -->
<g id="node11" class="node"><title>hardware</title>
<polygon fill="blue" stroke="black" points="379.759,-306.957 280.759,-306.957 280.759,-270.957 379.759,-270.957 379.759,-306.957"/>
<text text-anchor="middle" x="330.259" y="-283.357" font-family="Times,serif" font-size="22.00">hardware</text>
</g>
<!-- hardware&#45;&gt;benchoufi -->
<g id="edge19" class="edge"><title>hardware&#45;&gt;benchoufi</title>
<path fill="none" stroke="black" d="M307.021,-270.82C293.292,-260.105 275.79,-246.446 261.167,-235.033"/>
<polygon fill="black" stroke="black" points="262.976,-232.005 252.94,-228.612 258.67,-237.523 262.976,-232.005"/>
</g>
<!-- hardware&#45;&gt;olivier -->
<g id="edge18" class="edge"><title>hardware&#45;&gt;olivier</title>
<path fill="none" stroke="black" d="M321.906,-270.625C307.064,-238.053 276.033,-169.95 258.709,-131.931"/>
<polygon fill="black" stroke="black" points="261.746,-130.154 254.414,-122.506 255.376,-133.057 261.746,-130.154"/>
</g>
<!-- hardware&#45;&gt;luc -->
<g id="edge17" class="edge"><title>hardware&#45;&gt;luc</title>
<path fill="none" stroke="black" d="M344.406,-270.837C358.114,-252.595 378.75,-223.232 392.2,-195.308 410.999,-156.275 424.969,-107.863 432.599,-78.0275"/>
<polygon fill="black" stroke="black" points="436.002,-78.8449 435.031,-68.2947 429.211,-77.148 436.002,-78.8449"/>
</g>
<!-- hardware&#45;&gt;rbo -->
<g id="edge16" class="edge"><title>hardware&#45;&gt;rbo</title>
<path fill="none" stroke="black" d="M340.761,-270.542C357.311,-242.749 391.747,-189.641 431.939,-154.803 472.482,-119.662 528.728,-92.0614 563.895,-76.7705"/>
<polygon fill="black" stroke="black" points="565.401,-79.9331 573.224,-72.788 562.653,-73.4951 565.401,-79.9331"/>
</g>
<!-- jerome -->
<g id="node12" class="node"><title>jerome</title>
<ellipse fill="yellow" stroke="black" cx="344.444" cy="-413.346" rx="35.9954" ry="18"/>
<text text-anchor="middle" x="344.444" y="-409.646" font-family="Times,serif" font-size="14.00">jerome</text>
</g>
<!-- hardware&#45;&gt;jerome -->
<g id="edge20" class="edge"><title>hardware&#45;&gt;jerome</title>
<path fill="none" stroke="black" d="M332.322,-307.044C334.654,-327.495 338.481,-361.056 341.211,-384.996"/>
<polygon fill="black" stroke="black" points="337.768,-385.698 342.379,-395.237 344.723,-384.905 337.768,-385.698"/>
</g>
<!-- design -->
<g id="node13" class="node"><title>design</title>
<polygon fill="blue" stroke="black" points="244.459,-372.531 170.459,-372.531 170.459,-336.531 244.459,-336.531 244.459,-372.531"/>
<text text-anchor="middle" x="207.459" y="-348.931" font-family="Times,serif" font-size="22.00">design</text>
</g>
<!-- design&#45;&gt;benchoufi -->
<g id="edge21" class="edge"><title>design&#45;&gt;benchoufi</title>
<path fill="none" stroke="black" d="M210.643,-336.245C214.856,-312.05 222.325,-269.154 227.271,-240.75"/>
<polygon fill="black" stroke="black" points="230.763,-241.096 229.031,-230.643 223.867,-239.895 230.763,-241.096"/>
</g>
<!-- design&#45;&gt;olivier -->
<g id="edge24" class="edge"><title>design&#45;&gt;olivier</title>
<path fill="none" stroke="black" d="M200.443,-336.095C191.029,-308.957 176.374,-256.68 184.457,-212.427 190.209,-180.93 210.12,-149.747 225.823,-129.117"/>
<polygon fill="black" stroke="black" points="228.602,-131.245 232.026,-121.218 223.097,-126.921 228.602,-131.245"/>
</g>
<!-- design&#45;&gt;luc -->
<g id="edge23" class="edge"><title>design&#45;&gt;luc</title>
<path fill="none" stroke="black" d="M215.899,-336.41C233.49,-299.658 276.635,-214.611 326.8,-152.908 352.892,-120.815 389.098,-89.5987 413.293,-70.1877"/>
<polygon fill="black" stroke="black" points="415.65,-72.7858 421.313,-63.832 411.302,-67.2995 415.65,-72.7858"/>
</g>
<!-- design&#45;&gt;rbo -->
<g id="edge22" class="edge"><title>design&#45;&gt;rbo</title>
<path fill="none" stroke="black" d="M219.394,-336.463C232.279,-317.827 254.126,-288.619 277.559,-267.757 322.576,-227.678 345.305,-233.173 392.2,-195.308 411.821,-179.465 411.87,-170.076 431.939,-154.803 474.754,-122.222 530.584,-93.8067 565.015,-77.6607"/>
<polygon fill="black" stroke="black" points="566.527,-80.8176 574.13,-73.4388 563.585,-74.4658 566.527,-80.8176"/>
</g>
<!-- eiffel -->
<g id="node14" class="node"><title>eiffel</title>
<ellipse fill="yellow" stroke="black" cx="60.8614" cy="-388.812" rx="29.4969" ry="18"/>
<text text-anchor="middle" x="60.8614" y="-385.112" font-family="Times,serif" font-size="14.00">eiffel</text>
</g>
<!-- design&#45;&gt;eiffel -->
<g id="edge25" class="edge"><title>design&#45;&gt;eiffel</title>
<path fill="none" stroke="black" d="M170.087,-363.27C148.117,-368.408 120.426,-374.883 98.4237,-380.028"/>
<polygon fill="black" stroke="black" points="97.3837,-376.677 88.4433,-382.362 98.9776,-383.493 97.3837,-376.677"/>
</g>
<!-- community -->
<g id="node15" class="node"><title>community</title>
<polygon fill="blue" stroke="black" points="123.107,-249.908 5.10682,-249.908 5.10682,-213.908 123.107,-213.908 123.107,-249.908"/>
<text text-anchor="middle" x="64.1068" y="-226.308" font-family="Times,serif" font-size="22.00">community</text>
</g>
<!-- community&#45;&gt;benchoufi -->
<g id="edge26" class="edge"><title>community&#45;&gt;benchoufi</title>
<path fill="none" stroke="black" d="M123.371,-225.04C141.07,-222.988 160.38,-220.751 177.755,-218.737"/>
<polygon fill="black" stroke="black" points="178.204,-222.208 187.735,-217.58 177.398,-215.255 178.204,-222.208"/>
</g>
<!-- community&#45;&gt;olivier -->
<g id="edge27" class="edge"><title>community&#45;&gt;olivier</title>
<path fill="none" stroke="black" d="M90.2166,-213.695C123.877,-190.215 182.234,-149.508 217.273,-125.067"/>
<polygon fill="black" stroke="black" points="219.45,-127.816 225.649,-119.224 215.445,-122.074 219.45,-127.816"/>
</g>
<!-- community&#45;&gt;emilie -->
<g id="edge30" class="edge"><title>community&#45;&gt;emilie</title>
<path fill="none" stroke="black" d="M81.8183,-213.523C109.776,-185.104 166.6,-129.739 221.323,-90.9245 240.162,-77.562 262.791,-65.0099 281.171,-55.5952"/>
<polygon fill="black" stroke="black" points="282.996,-58.5948 290.353,-50.9702 279.847,-52.3431 282.996,-58.5948"/>
</g>
<!-- community&#45;&gt;luc -->
<g id="edge28" class="edge"><title>community&#45;&gt;luc</title>
<path fill="none" stroke="black" d="M101.442,-213.83C175.417,-178.01 339.374,-98.6193 408.013,-65.3828"/>
<polygon fill="black" stroke="black" points="409.572,-68.5169 417.047,-61.0086 406.521,-62.2166 409.572,-68.5169"/>
</g>
<!-- community&#45;&gt;rbo -->
<g id="edge29" class="edge"><title>community&#45;&gt;rbo</title>
<path fill="none" stroke="black" d="M121.102,-213.886C231.819,-178.875 472.937,-102.631 562.387,-74.3456"/>
<polygon fill="black" stroke="black" points="563.557,-77.6463 572.037,-71.2941 561.447,-70.972 563.557,-77.6463"/>
</g>
<!-- software -->
<g id="node16" class="node"><title>software</title>
<polygon fill="blue" stroke="black" points="207.741,-79.0451 115.741,-79.0451 115.741,-43.0451 207.741,-43.0451 207.741,-79.0451"/>
<text text-anchor="middle" x="161.741" y="-55.4451" font-family="Times,serif" font-size="22.00">software</text>
</g>
<!-- software&#45;&gt;benchoufi -->
<g id="edge31" class="edge"><title>software&#45;&gt;benchoufi</title>
<path fill="none" stroke="black" d="M170.241,-79.3053C182.527,-105.702 205.336,-154.706 219.589,-185.328"/>
<polygon fill="black" stroke="black" points="216.499,-186.983 223.892,-194.572 222.845,-184.029 216.499,-186.983"/>
</g>
<!-- software&#45;&gt;olivier -->
<g id="edge34" class="edge"><title>software&#45;&gt;olivier</title>
<path fill="none" stroke="black" d="M196.64,-79.0902C201.931,-81.8262 207.382,-84.6445 212.647,-87.3669"/>
<polygon fill="black" stroke="black" points="211.358,-90.6408 221.849,-92.1249 214.574,-84.4229 211.358,-90.6408"/>
</g>
<!-- software&#45;&gt;luc -->
<g id="edge32" class="edge"><title>software&#45;&gt;luc</title>
<path fill="none" stroke="black" d="M207.898,-60.9295C238.482,-60.7008 279.485,-60.1039 315.669,-58.6 344.663,-57.3949 377.432,-55.1488 401.929,-53.295"/>
<polygon fill="black" stroke="black" points="402.52,-56.7599 412.222,-52.5024 401.983,-49.7806 402.52,-56.7599"/>
</g>
<!-- software&#45;&gt;rbo -->
<g id="edge33" class="edge"><title>software&#45;&gt;rbo</title>
<path fill="none" stroke="black" d="M207.856,-63.5365C262.88,-66.2729 357.67,-70.2391 439.083,-69.8877 480.292,-69.7098 527.513,-67.5339 559.437,-65.7705"/>
<polygon fill="black" stroke="black" points="559.86,-69.2522 569.646,-65.1917 559.464,-62.2634 559.86,-69.2522"/>
</g>
<!-- djabbz -->
<g id="node17" class="node"><title>djabbz</title>
<ellipse fill="yellow" stroke="black" cx="34.4469" cy="-75.0808" rx="34.394" ry="18"/>
<text text-anchor="middle" x="34.4469" y="-71.3808" font-family="Times,serif" font-size="14.00">djabbz</text>
</g>
<!-- software&#45;&gt;djabbz -->
<g id="edge35" class="edge"><title>software&#45;&gt;djabbz</title>
<path fill="none" stroke="black" d="M115.425,-66.152C103.329,-67.4857 90.3292,-68.9191 78.3621,-70.2387"/>
<polygon fill="black" stroke="black" points="77.7163,-66.7886 68.1601,-71.3635 78.4835,-73.7464 77.7163,-66.7886"/>
</g>
</g>
</svg>
