<?xml version="1.0" encoding="UTF-8" standalone="no"?>
<!DOCTYPE svg PUBLIC "-//W3C//DTD SVG 1.1//EN"
 "http://www.w3.org/Graphics/SVG/1.1/DTD/svg11.dtd">
<!-- Generated by graphviz version 2.38.0 (20140413.2041)
 -->
<!-- Title: %3 Pages: 1 -->
<svg width="645pt" height="497pt"
 viewBox="0.00 0.00 645.39 497.00" xmlns="http://www.w3.org/2000/svg" xmlns:xlink="http://www.w3.org/1999/xlink">
<g id="graph0" class="graph" transform="scale(1 1) rotate(0) translate(4 493)">
<title>%3</title>
<polygon fill="white" stroke="none" points="-4,4 -4,-493 641.393,-493 641.393,4 -4,4"/>
<text text-anchor="middle" x="318.696" y="-7.4" font-family="Times,serif" font-size="12.00">the echOmmunity</text>
<!-- medical -->
<g id="node1" class="node"><title>medical</title>
<polygon fill="blue" stroke="black" points="541.59,-327.962 455.59,-327.962 455.59,-291.962 541.59,-291.962 541.59,-327.962"/>
<text text-anchor="middle" x="498.59" y="-304.362" font-family="Times,serif" font-size="22.00">medical</text>
</g>
<!-- benchoufi -->
<g id="node2" class="node"><title>benchoufi</title>
<ellipse fill="yellow" stroke="black" cx="296.509" cy="-307.813" rx="46.2923" ry="18"/>
<text text-anchor="middle" x="296.509" y="-304.113" font-family="Times,serif" font-size="14.00">benchoufi</text>
</g>
<!-- medical&#45;&gt;benchoufi -->
<g id="edge1" class="edge"><title>medical&#45;&gt;benchoufi</title>
<path fill="none" stroke="black" d="M455.238,-309.501C425.414,-309.184 385.505,-308.759 353.166,-308.415"/>
<polygon fill="black" stroke="black" points="352.991,-304.913 342.955,-308.307 352.917,-311.913 352.991,-304.913"/>
</g>
<!-- brunocp -->
<g id="node3" class="node"><title>brunocp</title>
<ellipse fill="yellow" stroke="black" cx="597.746" cy="-271.997" rx="39.7935" ry="18"/>
<text text-anchor="middle" x="597.746" y="-268.297" font-family="Times,serif" font-size="14.00">brunocp</text>
</g>
<!-- medical&#45;&gt;brunocp -->
<g id="edge2" class="edge"><title>medical&#45;&gt;brunocp</title>
<path fill="none" stroke="black" d="M541.793,-293.42C547.008,-291.423 552.32,-289.39 557.491,-287.41"/>
<polygon fill="black" stroke="black" points="559.112,-290.537 567.2,-283.692 556.609,-284 559.112,-290.537"/>
</g>
<!-- olivier -->
<g id="node4" class="node"><title>olivier</title>
<ellipse fill="yellow" stroke="black" cx="239.201" cy="-66.5016" rx="33.5952" ry="18"/>
<text text-anchor="middle" x="239.201" y="-62.8016" font-family="Times,serif" font-size="14.00">olivier</text>
</g>
<!-- medical&#45;&gt;olivier -->
<g id="edge3" class="edge"><title>medical&#45;&gt;olivier</title>
<path fill="none" stroke="black" d="M479.093,-291.663C432.474,-247.906 314.633,-137.302 263.499,-89.3075"/>
<polygon fill="black" stroke="black" points="265.857,-86.7203 256.17,-82.4287 261.066,-91.8243 265.857,-86.7203"/>
</g>
<!-- emilie -->
<g id="node5" class="node"><title>emilie</title>
<ellipse fill="yellow" stroke="black" cx="493.124" cy="-415.997" rx="33.2948" ry="18"/>
<text text-anchor="middle" x="493.124" y="-412.297" font-family="Times,serif" font-size="14.00">emilie</text>
</g>
<!-- medical&#45;&gt;emilie -->
<g id="edge4" class="edge"><title>medical&#45;&gt;emilie</title>
<path fill="none" stroke="black" d="M497.638,-328.432C496.795,-344.777 495.553,-368.881 494.585,-387.664"/>
<polygon fill="black" stroke="black" points="491.085,-387.572 494.065,-397.739 498.076,-387.932 491.085,-387.572"/>
</g>
<!-- luc -->
<g id="node6" class="node"><title>luc</title>
<ellipse fill="yellow" stroke="black" cx="323.842" cy="-39" rx="27" ry="18"/>
<text text-anchor="middle" x="323.842" y="-35.3" font-family="Times,serif" font-size="14.00">luc</text>
</g>
<!-- medical&#45;&gt;luc -->
<g id="edge5" class="edge"><title>medical&#45;&gt;luc</title>
<path fill="none" stroke="black" d="M476.41,-291.763C451.961,-270.743 412.776,-234.093 387.673,-195.666 360.57,-154.176 341.464,-99.316 331.588,-66.7371"/>
<polygon fill="black" stroke="black" points="334.898,-65.5861 328.708,-56.9877 328.185,-67.5696 334.898,-65.5861"/>
</g>
<!-- posts -->
<g id="node7" class="node"><title>posts</title>
<polygon fill="blue" stroke="black" points="354.842,-417 292.842,-417 292.842,-381 354.842,-381 354.842,-417"/>
<text text-anchor="middle" x="323.842" y="-393.4" font-family="Times,serif" font-size="22.00">posts</text>
</g>
<!-- posts&#45;&gt;benchoufi -->
<g id="edge6" class="edge"><title>posts&#45;&gt;benchoufi</title>
<path fill="none" stroke="black" d="M318.442,-380.984C314.549,-367.995 309.222,-350.223 304.792,-335.447"/>
<polygon fill="black" stroke="black" points="308.122,-334.365 301.898,-325.791 301.417,-336.375 308.122,-334.365"/>
</g>
<!-- posts&#45;&gt;olivier -->
<g id="edge8" class="edge"><title>posts&#45;&gt;olivier</title>
<path fill="none" stroke="black" d="M331.469,-380.706C338.238,-362.448 346.707,-333.491 344.255,-307.813 342.09,-285.132 279.524,-151.302 251.993,-93.2949"/>
<polygon fill="black" stroke="black" points="255.041,-91.553 247.586,-84.0249 248.719,-94.559 255.041,-91.553"/>
</g>
<!-- posts&#45;&gt;luc -->
<g id="edge7" class="edge"><title>posts&#45;&gt;luc</title>
<path fill="none" stroke="black" d="M328.382,-380.929C332.87,-362.599 339.707,-333.368 344.255,-307.813 353.347,-256.726 362.154,-243.905 359.622,-192.077 357.431,-147.209 343.267,-96.7577 333.431,-66.45"/>
<polygon fill="black" stroke="black" points="336.636,-64.9966 330.16,-56.6121 329.994,-67.2056 336.636,-64.9966"/>
</g>
<!-- rbo -->
<g id="node8" class="node"><title>rbo</title>
<ellipse fill="yellow" stroke="black" cx="408.483" cy="-66.5016" rx="27" ry="18"/>
<text text-anchor="middle" x="408.483" y="-62.8016" font-family="Times,serif" font-size="14.00">rbo</text>
</g>
<!-- posts&#45;&gt;rbo -->
<g id="edge9" class="edge"><title>posts&#45;&gt;rbo</title>
<path fill="none" stroke="black" d="M328.513,-380.65C342.593,-325.34 384.679,-160.011 401.462,-94.0844"/>
<polygon fill="black" stroke="black" points="404.854,-94.9435 403.93,-84.3892 398.071,-93.2166 404.854,-94.9435"/>
</g>
<!-- hackolite -->
<g id="node9" class="node"><title>hackolite</title>
<ellipse fill="yellow" stroke="black" cx="323.842" cy="-471" rx="42.7926" ry="18"/>
<text text-anchor="middle" x="323.842" y="-467.3" font-family="Times,serif" font-size="14.00">hackolite</text>
</g>
<!-- posts&#45;&gt;hackolite -->
<g id="edge10" class="edge"><title>posts&#45;&gt;hackolite</title>
<path fill="none" stroke="black" d="M323.842,-417.169C323.842,-424.869 323.842,-434.026 323.842,-442.583"/>
<polygon fill="black" stroke="black" points="320.342,-442.587 323.842,-452.587 327.342,-442.587 320.342,-442.587"/>
</g>
<!-- legal -->
<g id="node10" class="node"><title>legal</title>
<polygon fill="blue" stroke="black" points="284.866,-223.249 225.866,-223.249 225.866,-187.249 284.866,-187.249 284.866,-223.249"/>
<text text-anchor="middle" x="255.366" y="-199.649" font-family="Times,serif" font-size="22.00">legal</text>
</g>
<!-- legal&#45;&gt;benchoufi -->
<g id="edge13" class="edge"><title>legal&#45;&gt;benchoufi</title>
<path fill="none" stroke="black" d="M262.722,-223.586C269.079,-239.434 278.358,-262.564 285.583,-280.577"/>
<polygon fill="black" stroke="black" points="282.384,-282.001 289.355,-289.979 288.88,-279.395 282.384,-282.001"/>
</g>
<!-- legal&#45;&gt;olivier -->
<g id="edge12" class="edge"><title>legal&#45;&gt;olivier</title>
<path fill="none" stroke="black" d="M253.253,-187.11C250.518,-163.636 245.723,-122.477 242.504,-94.8558"/>
<polygon fill="black" stroke="black" points="245.949,-94.1726 241.315,-84.6448 238.996,-94.9827 245.949,-94.1726"/>
</g>
<!-- legal&#45;&gt;luc -->
<g id="edge11" class="edge"><title>legal&#45;&gt;luc</title>
<path fill="none" stroke="black" d="M262.825,-187.141C274.876,-157.882 298.697,-100.049 312.746,-65.9407"/>
<polygon fill="black" stroke="black" points="316.027,-67.1633 316.599,-56.5839 309.555,-64.4973 316.027,-67.1633"/>
</g>
<!-- legal&#45;&gt;rbo -->
<g id="edge14" class="edge"><title>legal&#45;&gt;rbo</title>
<path fill="none" stroke="black" d="M275.383,-187.11C303.512,-161.622 354.647,-115.285 384.685,-88.0661"/>
<polygon fill="black" stroke="black" points="387.141,-90.5639 392.201,-81.2555 382.441,-85.3768 387.141,-90.5639"/>
</g>
<!-- eiffel -->
<g id="node11" class="node"><title>eiffel</title>
<ellipse fill="yellow" stroke="black" cx="328.775" cy="-191.981" rx="29.4969" ry="18"/>
<text text-anchor="middle" x="328.775" y="-188.281" font-family="Times,serif" font-size="14.00">eiffel</text>
</g>
<!-- legal&#45;&gt;eiffel -->
<g id="edge15" class="edge"><title>legal&#45;&gt;eiffel</title>
<path fill="none" stroke="black" d="M285.224,-199.853C286.971,-199.537 288.739,-199.217 290.512,-198.897"/>
<polygon fill="black" stroke="black" points="291.385,-202.296 300.603,-197.073 290.14,-195.408 291.385,-202.296"/>
</g>
<!-- hardware -->
<g id="node12" class="node"><title>hardware</title>
<polygon fill="blue" stroke="black" points="245.192,-368.581 146.192,-368.581 146.192,-332.581 245.192,-332.581 245.192,-368.581"/>
<text text-anchor="middle" x="195.692" y="-344.981" font-family="Times,serif" font-size="22.00">hardware</text>
</g>
<!-- hardware&#45;&gt;benchoufi -->
<g id="edge19" class="edge"><title>hardware&#45;&gt;benchoufi</title>
<path fill="none" stroke="black" d="M238.156,-332.568C243.947,-330.111 249.882,-327.593 255.645,-325.148"/>
<polygon fill="black" stroke="black" points="257.285,-328.255 265.124,-321.127 254.551,-321.81 257.285,-328.255"/>
</g>
<!-- hardware&#45;&gt;olivier -->
<g id="edge18" class="edge"><title>hardware&#45;&gt;olivier</title>
<path fill="none" stroke="black" d="M198.48,-332.379C205.878,-284.075 226.046,-152.392 234.917,-94.4724"/>
<polygon fill="black" stroke="black" points="238.382,-94.9672 236.436,-84.5526 231.463,-93.9074 238.382,-94.9672"/>
</g>
<!-- hardware&#45;&gt;luc -->
<g id="edge17" class="edge"><title>hardware&#45;&gt;luc</title>
<path fill="none" stroke="black" d="M196.016,-332.376C197.138,-300.974 201.996,-235.085 222.666,-184.049 241.885,-136.596 278.994,-89.4204 302.532,-62.2941"/>
<polygon fill="black" stroke="black" points="305.38,-64.3571 309.367,-54.5412 300.129,-59.7281 305.38,-64.3571"/>
</g>
<!-- hardware&#45;&gt;rbo -->
<g id="edge16" class="edge"><title>hardware&#45;&gt;rbo</title>
<path fill="none" stroke="black" d="M212.752,-332.235C233.34,-309.184 267.72,-267.633 288.066,-226.449 295.142,-212.127 291.255,-206.4 297.928,-191.886 301.007,-185.191 302.547,-183.871 307.07,-178.055 332.364,-145.524 364.903,-110.815 386.209,-88.9099"/>
<polygon fill="black" stroke="black" points="388.752,-91.315 393.246,-81.7204 383.75,-86.4184 388.752,-91.315"/>
</g>
<!-- jerome -->
<g id="node13" class="node"><title>jerome</title>
<ellipse fill="yellow" stroke="black" cx="154.56" cy="-415.997" rx="35.9954" ry="18"/>
<text text-anchor="middle" x="154.56" y="-412.297" font-family="Times,serif" font-size="14.00">jerome</text>
</g>
<!-- hardware&#45;&gt;jerome -->
<g id="edge20" class="edge"><title>hardware&#45;&gt;jerome</title>
<path fill="none" stroke="black" d="M184.235,-368.803C180.09,-375.395 175.326,-382.971 170.846,-390.096"/>
<polygon fill="black" stroke="black" points="167.751,-388.444 165.391,-398.772 173.677,-392.17 167.751,-388.444"/>
</g>
<!-- design -->
<g id="node14" class="node"><title>design</title>
<polygon fill="blue" stroke="black" points="464.873,-192.466 390.873,-192.466 390.873,-156.466 464.873,-156.466 464.873,-192.466"/>
<text text-anchor="middle" x="427.873" y="-168.866" font-family="Times,serif" font-size="22.00">design</text>
</g>
<!-- design&#45;&gt;benchoufi -->
<g id="edge21" class="edge"><title>design&#45;&gt;benchoufi</title>
<path fill="none" stroke="black" d="M409.883,-192.728C386.731,-216.229 346.428,-257.141 320.634,-283.324"/>
<polygon fill="black" stroke="black" points="317.975,-281.036 313.451,-290.616 322.962,-285.948 317.975,-281.036"/>
</g>
<!-- design&#45;&gt;olivier -->
<g id="edge24" class="edge"><title>design&#45;&gt;olivier</title>
<path fill="none" stroke="black" d="M396.294,-156.395C361.53,-136.502 305.958,-104.702 271.077,-84.742"/>
<polygon fill="black" stroke="black" points="272.669,-81.6205 262.251,-79.6916 269.192,-87.6961 272.669,-81.6205"/>
</g>
<!-- design&#45;&gt;luc -->
<g id="edge23" class="edge"><title>design&#45;&gt;luc</title>
<path fill="none" stroke="black" d="M413.843,-156.196C395.427,-132.215 363.041,-90.0441 342.553,-63.3649"/>
<polygon fill="black" stroke="black" points="345.219,-61.0893 336.352,-55.2899 339.667,-65.3528 345.219,-61.0893"/>
</g>
<!-- design&#45;&gt;rbo -->
<g id="edge22" class="edge"><title>design&#45;&gt;rbo</title>
<path fill="none" stroke="black" d="M424.584,-156.151C421.557,-139.299 417.023,-114.051 413.537,-94.6393"/>
<polygon fill="black" stroke="black" points="416.937,-93.7696 411.724,-84.5458 410.047,-95.007 416.937,-93.7696"/>
</g>
<!-- design&#45;&gt;eiffel -->
<g id="edge25" class="edge"><title>design&#45;&gt;eiffel</title>
<path fill="none" stroke="black" d="M390.691,-181.038C382.977,-182.401 374.836,-183.84 367.083,-185.211"/>
<polygon fill="black" stroke="black" points="366.42,-181.773 357.182,-186.96 367.639,-188.666 366.42,-181.773"/>
</g>
<!-- community -->
<g id="node15" class="node"><title>community</title>
<polygon fill="blue" stroke="black" points="177.414,-267.748 59.4139,-267.748 59.4139,-231.748 177.414,-231.748 177.414,-267.748"/>
<text text-anchor="middle" x="118.414" y="-244.148" font-family="Times,serif" font-size="22.00">community</text>
</g>
<!-- community&#45;&gt;benchoufi -->
<g id="edge26" class="edge"><title>community&#45;&gt;benchoufi</title>
<path fill="none" stroke="black" d="M173.788,-267.802C198.716,-275.929 227.772,-285.402 251.353,-293.09"/>
<polygon fill="black" stroke="black" points="250.503,-296.495 261.095,-296.267 252.673,-289.839 250.503,-296.495"/>
</g>
<!-- community&#45;&gt;olivier -->
<g id="edge27" class="edge"><title>community&#45;&gt;olivier</title>
<path fill="none" stroke="black" d="M130.437,-231.507C152.092,-198.654 197.692,-129.475 222.413,-91.9711"/>
<polygon fill="black" stroke="black" points="225.351,-93.8725 227.933,-83.5969 219.507,-90.02 225.351,-93.8725"/>
</g>
<!-- community&#45;&gt;emilie -->
<g id="edge30" class="edge"><title>community&#45;&gt;emilie</title>
<path fill="none" stroke="black" d="M152.775,-267.765C181.804,-282.77 224.624,-304.397 262.748,-321.672 330.229,-352.25 410.635,-384.171 456.398,-401.926"/>
<polygon fill="black" stroke="black" points="455.305,-405.255 465.894,-405.599 457.83,-398.727 455.305,-405.255"/>
</g>
<!-- community&#45;&gt;luc -->
<g id="edge28" class="edge"><title>community&#45;&gt;luc</title>
<path fill="none" stroke="black" d="M136.285,-231.414C173.871,-192.855 260.996,-103.473 301.895,-61.5149"/>
<polygon fill="black" stroke="black" points="304.498,-63.8591 308.972,-54.2552 299.486,-58.973 304.498,-63.8591"/>
</g>
<!-- community&#45;&gt;rbo -->
<g id="edge29" class="edge"><title>community&#45;&gt;rbo</title>
<path fill="none" stroke="black" d="M147.021,-231.676C202.667,-196.522 324.867,-119.325 380.23,-84.35"/>
<polygon fill="black" stroke="black" points="382.247,-87.2159 388.832,-78.916 378.508,-81.2979 382.247,-87.2159"/>
</g>
<!-- software -->
<g id="node16" class="node"><title>software</title>
<polygon fill="blue" stroke="black" points="177.1,-128.055 85.1004,-128.055 85.1004,-92.0552 177.1,-92.0552 177.1,-128.055"/>
<text text-anchor="middle" x="131.1" y="-104.455" font-family="Times,serif" font-size="22.00">software</text>
</g>
<!-- software&#45;&gt;benchoufi -->
<g id="edge31" class="edge"><title>software&#45;&gt;benchoufi</title>
<path fill="none" stroke="black" d="M144.679,-128.115C162.23,-151.268 193.951,-192.48 222.666,-226.449 239.176,-245.98 258.645,-267.368 273.446,-283.312"/>
<polygon fill="black" stroke="black" points="270.925,-285.741 280.303,-290.67 276.046,-280.968 270.925,-285.741"/>
</g>
<!-- software&#45;&gt;olivier -->
<g id="edge34" class="edge"><title>software&#45;&gt;olivier</title>
<path fill="none" stroke="black" d="M176.006,-91.9629C184.941,-88.3629 194.219,-84.6246 202.826,-81.157"/>
<polygon fill="black" stroke="black" points="204.236,-84.3623 212.204,-77.3788 201.62,-77.8695 204.236,-84.3623"/>
</g>
<!-- software&#45;&gt;luc -->
<g id="edge32" class="edge"><title>software&#45;&gt;luc</title>
<path fill="none" stroke="black" d="M177.175,-104.343C203.475,-99.9754 236.603,-92.5635 264.22,-80.3666 276.465,-74.9588 288.816,-66.9141 299.076,-59.353"/>
<polygon fill="black" stroke="black" points="301.331,-62.0349 307.154,-53.1839 297.082,-56.4717 301.331,-62.0349"/>
</g>
<!-- software&#45;&gt;rbo -->
<g id="edge33" class="edge"><title>software&#45;&gt;rbo</title>
<path fill="none" stroke="black" d="M177.216,-102.814C231.868,-94.233 321.818,-80.1095 371.91,-72.2442"/>
<polygon fill="black" stroke="black" points="372.631,-75.6739 381.967,-70.665 371.545,-68.7586 372.631,-75.6739"/>
</g>
<!-- djabbz -->
<g id="node17" class="node"><title>djabbz</title>
<ellipse fill="yellow" stroke="black" cx="34.4469" cy="-86.319" rx="34.394" ry="18"/>
<text text-anchor="middle" x="34.4469" y="-82.619" font-family="Times,serif" font-size="14.00">djabbz</text>
</g>
<!-- software&#45;&gt;djabbz -->
<g id="edge35" class="edge"><title>software&#45;&gt;djabbz</title>
<path fill="none" stroke="black" d="M85.0383,-98.7433C81.8824,-97.9682 78.7137,-97.1901 75.5861,-96.422"/>
<polygon fill="black" stroke="black" points="76.3487,-93.0053 65.8025,-94.0193 74.6792,-99.8034 76.3487,-93.0053"/>
</g>
</g>
</svg>
