<?xml version="1.0" encoding="UTF-8" standalone="no"?>
<!DOCTYPE svg PUBLIC "-//W3C//DTD SVG 1.1//EN"
 "http://www.w3.org/Graphics/SVG/1.1/DTD/svg11.dtd">
<!-- Generated by graphviz version 2.38.0 (20140413.2041)
 -->
<!-- Title: %3 Pages: 1 -->
<svg width="677pt" height="498pt"
 viewBox="0.00 0.00 677.14 498.37" xmlns="http://www.w3.org/2000/svg" xmlns:xlink="http://www.w3.org/1999/xlink">
<g id="graph0" class="graph" transform="scale(1 1) rotate(0) translate(4 494.369)">
<title>%3</title>
<polygon fill="white" stroke="none" points="-4,4 -4,-494.369 673.144,-494.369 673.144,4 -4,4"/>
<text text-anchor="middle" x="334.572" y="-7.4" font-family="Times,serif" font-size="12.00">the echOmmunity</text>
<!-- medical -->
<g id="node1" class="node"><title>medical</title>
<polygon fill="blue" stroke="black" points="538.35,-310.927 452.35,-310.927 452.35,-274.927 538.35,-274.927 538.35,-310.927"/>
<text text-anchor="middle" x="495.35" y="-287.327" font-family="Times,serif" font-size="22.00">medical</text>
</g>
<!-- benchoufi -->
<g id="node2" class="node"><title>benchoufi</title>
<ellipse fill="yellow" stroke="black" cx="351.626" cy="-308.752" rx="46.2923" ry="18"/>
<text text-anchor="middle" x="351.626" y="-305.052" font-family="Times,serif" font-size="14.00">benchoufi</text>
</g>
<!-- medical&#45;&gt;benchoufi -->
<g id="edge1" class="edge"><title>medical&#45;&gt;benchoufi</title>
<path fill="none" stroke="black" d="M452.228,-297.675C437.851,-299.258 421.637,-301.044 406.491,-302.711"/>
<polygon fill="black" stroke="black" points="405.769,-299.27 396.212,-303.843 406.535,-306.228 405.769,-299.27"/>
</g>
<!-- brunocp -->
<g id="node3" class="node"><title>brunocp</title>
<ellipse fill="yellow" stroke="black" cx="629.497" cy="-254.357" rx="39.7935" ry="18"/>
<text text-anchor="middle" x="629.497" y="-250.657" font-family="Times,serif" font-size="14.00">brunocp</text>
</g>
<!-- medical&#45;&gt;brunocp -->
<g id="edge2" class="edge"><title>medical&#45;&gt;brunocp</title>
<path fill="none" stroke="black" d="M538.533,-280.511C553.738,-276.139 570.827,-271.226 586.053,-266.848"/>
<polygon fill="black" stroke="black" points="587.108,-270.186 595.752,-264.059 585.174,-263.459 587.108,-270.186"/>
</g>
<!-- olivier -->
<g id="node4" class="node"><title>olivier</title>
<ellipse fill="yellow" stroke="black" cx="127.84" cy="-89.9089" rx="33.5952" ry="18"/>
<text text-anchor="middle" x="127.84" y="-86.2089" font-family="Times,serif" font-size="14.00">olivier</text>
</g>
<!-- medical&#45;&gt;olivier -->
<g id="edge3" class="edge"><title>medical&#45;&gt;olivier</title>
<path fill="none" stroke="black" d="M462.736,-274.911C392.965,-236.368 229.92,-146.299 160.293,-107.836"/>
<polygon fill="black" stroke="black" points="161.942,-104.749 151.497,-102.977 158.557,-110.876 161.942,-104.749"/>
</g>
<!-- luc -->
<g id="node5" class="node"><title>luc</title>
<ellipse fill="yellow" stroke="black" cx="221.386" cy="-42.8474" rx="27" ry="18"/>
<text text-anchor="middle" x="221.386" y="-39.1474" font-family="Times,serif" font-size="14.00">luc</text>
</g>
<!-- medical&#45;&gt;luc -->
<g id="edge4" class="edge"><title>medical&#45;&gt;luc</title>
<path fill="none" stroke="black" d="M480.912,-274.803C460.253,-249.358 420.49,-202.164 382.024,-166.471 338.097,-125.712 281.534,-84.479 248.58,-61.4364"/>
<polygon fill="black" stroke="black" points="250.546,-58.5407 240.337,-55.7081 246.552,-64.289 250.546,-58.5407"/>
</g>
<!-- emilie -->
<g id="node6" class="node"><title>emilie</title>
<ellipse fill="yellow" stroke="black" cx="545.735" cy="-438.719" rx="33.2948" ry="18"/>
<text text-anchor="middle" x="545.735" y="-435.019" font-family="Times,serif" font-size="14.00">emilie</text>
</g>
<!-- medical&#45;&gt;emilie -->
<g id="edge5" class="edge"><title>medical&#45;&gt;emilie</title>
<path fill="none" stroke="black" d="M501.629,-311.097C510.313,-336.225 526.063,-381.797 536.202,-411.137"/>
<polygon fill="black" stroke="black" points="532.96,-412.47 539.534,-420.778 539.576,-410.183 532.96,-412.47"/>
</g>
<!-- posts -->
<g id="node7" class="node"><title>posts</title>
<polygon fill="blue" stroke="black" points="295.814,-247.131 233.814,-247.131 233.814,-211.131 295.814,-211.131 295.814,-247.131"/>
<text text-anchor="middle" x="264.814" y="-223.531" font-family="Times,serif" font-size="22.00">posts</text>
</g>
<!-- posts&#45;&gt;benchoufi -->
<g id="edge6" class="edge"><title>posts&#45;&gt;benchoufi</title>
<path fill="none" stroke="black" d="M284.513,-247.198C296.808,-258.474 312.763,-273.108 326.032,-285.277"/>
<polygon fill="black" stroke="black" points="323.75,-287.934 333.486,-292.114 328.482,-282.775 323.75,-287.934"/>
</g>
<!-- posts&#45;&gt;olivier -->
<g id="edge8" class="edge"><title>posts&#45;&gt;olivier</title>
<path fill="none" stroke="black" d="M246.908,-210.93C222.25,-185.867 177.828,-140.717 150.769,-113.214"/>
<polygon fill="black" stroke="black" points="153.137,-110.63 143.628,-105.956 148.147,-115.539 153.137,-110.63"/>
</g>
<!-- posts&#45;&gt;luc -->
<g id="edge7" class="edge"><title>posts&#45;&gt;luc</title>
<path fill="none" stroke="black" d="M260.571,-210.93C252.963,-178.294 236.953,-109.622 227.93,-70.9155"/>
<polygon fill="black" stroke="black" points="231.262,-69.792 225.583,-60.8478 224.445,-71.3814 231.262,-69.792"/>
</g>
<!-- rbo -->
<g id="node8" class="node"><title>rbo</title>
<ellipse fill="yellow" stroke="black" cx="340.829" cy="-39" rx="27" ry="18"/>
<text text-anchor="middle" x="340.829" y="-35.3" font-family="Times,serif" font-size="14.00">rbo</text>
</g>
<!-- posts&#45;&gt;rbo -->
<g id="edge9" class="edge"><title>posts&#45;&gt;rbo</title>
<path fill="none" stroke="black" d="M272.103,-210.9C285.538,-177.298 314.266,-105.441 329.992,-66.1076"/>
<polygon fill="black" stroke="black" points="333.322,-67.2066 333.784,-56.6219 326.822,-64.6079 333.322,-67.2066"/>
</g>
<!-- aurelie -->
<g id="node9" class="node"><title>aurelie</title>
<ellipse fill="yellow" stroke="black" cx="356.512" cy="-180.318" rx="34.394" ry="18"/>
<text text-anchor="middle" x="356.512" y="-176.618" font-family="Times,serif" font-size="14.00">aurelie</text>
</g>
<!-- posts&#45;&gt;aurelie -->
<g id="edge10" class="edge"><title>posts&#45;&gt;aurelie</title>
<path fill="none" stroke="black" d="M295.859,-212.605C304.651,-207.925 314.257,-202.811 323.178,-198.062"/>
<polygon fill="black" stroke="black" points="324.982,-201.067 332.164,-193.279 321.692,-194.888 324.982,-201.067"/>
</g>
<!-- legal -->
<g id="node10" class="node"><title>legal</title>
<polygon fill="blue" stroke="black" points="484.866,-65.8372 425.866,-65.8372 425.866,-29.8372 484.866,-29.8372 484.866,-65.8372"/>
<text text-anchor="middle" x="455.366" y="-42.2372" font-family="Times,serif" font-size="22.00">legal</text>
</g>
<!-- legal&#45;&gt;benchoufi -->
<g id="edge14" class="edge"><title>legal&#45;&gt;benchoufi</title>
<path fill="none" stroke="black" d="M448.072,-66.1843C430.134,-111.299 383.795,-227.845 362.555,-281.266"/>
<polygon fill="black" stroke="black" points="359.218,-280.186 358.775,-290.772 365.722,-282.773 359.218,-280.186"/>
</g>
<!-- legal&#45;&gt;olivier -->
<g id="edge12" class="edge"><title>legal&#45;&gt;olivier</title>
<path fill="none" stroke="black" d="M425.723,-51.645C367.728,-59.0947 239.033,-75.6259 171.36,-84.3187"/>
<polygon fill="black" stroke="black" points="170.516,-80.8983 161.043,-85.644 171.408,-87.8413 170.516,-80.8983"/>
</g>
<!-- legal&#45;&gt;luc -->
<g id="edge11" class="edge"><title>legal&#45;&gt;luc</title>
<path fill="none" stroke="black" d="M425.764,-52.459C402.672,-55.6179 369.765,-59.1428 340.803,-58.6 312.573,-58.0708 280.903,-53.7179 257.274,-49.7219"/>
<polygon fill="black" stroke="black" points="257.803,-46.2614 247.35,-47.9849 256.596,-53.1566 257.803,-46.2614"/>
</g>
<!-- legal&#45;&gt;rbo -->
<g id="edge13" class="edge"><title>legal&#45;&gt;rbo</title>
<path fill="none" stroke="black" d="M425.572,-45.5384C411.031,-44.4165 393.394,-43.0557 377.982,-41.8666"/>
<polygon fill="black" stroke="black" points="377.974,-38.3556 367.734,-41.0759 377.435,-45.3349 377.974,-38.3556"/>
</g>
<!-- legal&#45;&gt;aurelie -->
<g id="edge15" class="edge"><title>legal&#45;&gt;aurelie</title>
<path fill="none" stroke="black" d="M441.828,-65.9803C424.63,-89.0282 394.856,-128.931 375.422,-154.976"/>
<polygon fill="black" stroke="black" points="372.436,-153.125 369.261,-163.233 378.046,-157.311 372.436,-153.125"/>
</g>
<!-- hardware -->
<g id="node11" class="node"><title>hardware</title>
<polygon fill="blue" stroke="black" points="393.424,-412.188 294.424,-412.188 294.424,-376.188 393.424,-376.188 393.424,-412.188"/>
<text text-anchor="middle" x="343.924" y="-388.588" font-family="Times,serif" font-size="22.00">hardware</text>
</g>
<!-- hardware&#45;&gt;benchoufi -->
<g id="edge19" class="edge"><title>hardware&#45;&gt;benchoufi</title>
<path fill="none" stroke="black" d="M345.557,-376.069C346.579,-364.742 347.915,-349.915 349.074,-337.059"/>
<polygon fill="black" stroke="black" points="352.583,-337.119 349.995,-326.845 345.611,-336.49 352.583,-337.119"/>
</g>
<!-- hardware&#45;&gt;olivier -->
<g id="edge18" class="edge"><title>hardware&#45;&gt;olivier</title>
<path fill="none" stroke="black" d="M328.666,-376.008C306.333,-349.136 263.793,-296.956 230.614,-250.331 197.8,-204.218 162.937,-148.079 143.424,-115.918"/>
<polygon fill="black" stroke="black" points="146.279,-113.876 138.111,-107.128 140.288,-117.497 146.279,-113.876"/>
</g>
<!-- hardware&#45;&gt;luc -->
<g id="edge17" class="edge"><title>hardware&#45;&gt;luc</title>
<path fill="none" stroke="black" d="M332.812,-375.967C323.213,-359.18 309.957,-333.236 303.88,-308.752 293.075,-265.211 309.848,-251.465 299.014,-207.931 285.998,-155.622 255.976,-99.8984 237.315,-68.4216"/>
<polygon fill="black" stroke="black" points="240.303,-66.5989 232.148,-59.8355 234.305,-70.2084 240.303,-66.5989"/>
</g>
<!-- hardware&#45;&gt;rbo -->
<g id="edge16" class="edge"><title>hardware&#45;&gt;rbo</title>
<path fill="none" stroke="black" d="M331.773,-376.177C321.474,-359.531 307.774,-333.677 303.88,-308.752 290.084,-220.426 316.838,-115.382 331.758,-66.526"/>
<polygon fill="black" stroke="black" points="335.184,-67.297 334.83,-56.708 328.503,-65.2064 335.184,-67.297"/>
</g>
<!-- jerome -->
<g id="node12" class="node"><title>jerome</title>
<ellipse fill="yellow" stroke="black" cx="336.4" cy="-472.369" rx="35.9954" ry="18"/>
<text text-anchor="middle" x="336.4" y="-468.669" font-family="Times,serif" font-size="14.00">jerome</text>
</g>
<!-- hardware&#45;&gt;jerome -->
<g id="edge20" class="edge"><title>hardware&#45;&gt;jerome</title>
<path fill="none" stroke="black" d="M342.179,-412.321C341.267,-421.794 340.131,-433.597 339.109,-444.227"/>
<polygon fill="black" stroke="black" points="335.61,-444.045 338.136,-454.334 342.578,-444.716 335.61,-444.045"/>
</g>
<!-- design -->
<g id="node13" class="node"><title>design</title>
<polygon fill="blue" stroke="black" points="249.191,-358.726 175.191,-358.726 175.191,-322.726 249.191,-322.726 249.191,-358.726"/>
<text text-anchor="middle" x="212.191" y="-335.126" font-family="Times,serif" font-size="22.00">design</text>
</g>
<!-- design&#45;&gt;benchoufi -->
<g id="edge21" class="edge"><title>design&#45;&gt;benchoufi</title>
<path fill="none" stroke="black" d="M249.191,-332.242C265.243,-328.561 284.287,-324.194 301.574,-320.23"/>
<polygon fill="black" stroke="black" points="302.549,-323.597 311.514,-317.95 300.984,-316.774 302.549,-323.597"/>
</g>
<!-- design&#45;&gt;olivier -->
<g id="edge24" class="edge"><title>design&#45;&gt;olivier</title>
<path fill="none" stroke="black" d="M209.206,-322.346C204.54,-295.357 194.517,-243.631 179.934,-201.38 169.553,-171.301 153.616,-138.486 142.103,-116.302"/>
<polygon fill="black" stroke="black" points="145.066,-114.417 137.315,-107.195 138.871,-117.675 145.066,-114.417"/>
</g>
<!-- design&#45;&gt;luc -->
<g id="edge23" class="edge"><title>design&#45;&gt;luc</title>
<path fill="none" stroke="black" d="M212.752,-322.541C214.301,-272.374 218.642,-131.744 220.512,-71.1795"/>
<polygon fill="black" stroke="black" points="224.01,-71.2764 220.821,-61.1731 217.014,-71.0604 224.01,-71.2764"/>
</g>
<!-- design&#45;&gt;rbo -->
<g id="edge22" class="edge"><title>design&#45;&gt;rbo</title>
<path fill="none" stroke="black" d="M212.227,-322.502C212.826,-296.33 216.017,-246.953 230.614,-207.931 251.811,-151.269 294.591,-94.1503 320.172,-62.9954"/>
<polygon fill="black" stroke="black" points="323.188,-64.8426 326.898,-54.9186 317.809,-60.3629 323.188,-64.8426"/>
</g>
<!-- eiffel -->
<g id="node14" class="node"><title>eiffel</title>
<ellipse fill="yellow" stroke="black" cx="117.624" cy="-439.649" rx="29.4969" ry="18"/>
<text text-anchor="middle" x="117.624" y="-435.949" font-family="Times,serif" font-size="14.00">eiffel</text>
</g>
<!-- design&#45;&gt;eiffel -->
<g id="edge25" class="edge"><title>design&#45;&gt;eiffel</title>
<path fill="none" stroke="black" d="M194.846,-358.87C179.402,-375.026 156.719,-398.754 139.929,-416.317"/>
<polygon fill="black" stroke="black" points="137.057,-414.256 132.677,-423.903 142.117,-419.093 137.057,-414.256"/>
</g>
<!-- community -->
<g id="node15" class="node"><title>community</title>
<polygon fill="blue" stroke="black" points="611.684,-123.216 493.684,-123.216 493.684,-87.2157 611.684,-87.2157 611.684,-123.216"/>
<text text-anchor="middle" x="552.684" y="-99.6157" font-family="Times,serif" font-size="22.00">community</text>
</g>
<!-- community&#45;&gt;benchoufi -->
<g id="edge26" class="edge"><title>community&#45;&gt;benchoufi</title>
<path fill="none" stroke="black" d="M534.841,-123.278C498.561,-160.006 416.179,-243.403 375.402,-284.684"/>
<polygon fill="black" stroke="black" points="372.83,-282.307 368.292,-291.881 377.81,-287.226 372.83,-282.307"/>
</g>
<!-- community&#45;&gt;olivier -->
<g id="edge27" class="edge"><title>community&#45;&gt;olivier</title>
<path fill="none" stroke="black" d="M493.611,-103.087C407.38,-99.9805 248.956,-94.2726 172.05,-91.5018"/>
<polygon fill="black" stroke="black" points="171.875,-87.9933 161.755,-91.1309 171.623,-94.9887 171.875,-87.9933"/>
</g>
<!-- community&#45;&gt;luc -->
<g id="edge28" class="edge"><title>community&#45;&gt;luc</title>
<path fill="none" stroke="black" d="M493.454,-94.0655C424.946,-81.1685 314.323,-60.3432 257.549,-49.6552"/>
<polygon fill="black" stroke="black" points="258.072,-46.1922 247.597,-47.7817 256.776,-53.0714 258.072,-46.1922"/>
</g>
<!-- community&#45;&gt;rbo -->
<g id="edge29" class="edge"><title>community&#45;&gt;rbo</title>
<path fill="none" stroke="black" d="M493.487,-89.8222C471.171,-83.7372 445.637,-76.4356 422.666,-69.0372 406.514,-63.8349 388.811,-57.4276 374.015,-51.8687"/>
<polygon fill="black" stroke="black" points="374.882,-48.4544 364.291,-48.1811 372.4,-54.9996 374.882,-48.4544"/>
</g>
<!-- community&#45;&gt;aurelie -->
<g id="edge30" class="edge"><title>community&#45;&gt;aurelie</title>
<path fill="none" stroke="black" d="M505.196,-123.396C470.976,-136.497 425.441,-153.929 393.818,-166.036"/>
<polygon fill="black" stroke="black" points="392.566,-162.767 384.478,-169.611 395.069,-169.305 392.566,-162.767"/>
</g>
<!-- software -->
<g id="node16" class="node"><title>software</title>
<polygon fill="blue" stroke="black" points="176.734,-240.58 84.7344,-240.58 84.7344,-204.58 176.734,-204.58 176.734,-240.58"/>
<text text-anchor="middle" x="130.734" y="-216.98" font-family="Times,serif" font-size="22.00">software</text>
</g>
<!-- software&#45;&gt;benchoufi -->
<g id="edge31" class="edge"><title>software&#45;&gt;benchoufi</title>
<path fill="none" stroke="black" d="M176.772,-240.539C215.77,-255.753 271.238,-277.392 309.179,-292.193"/>
<polygon fill="black" stroke="black" points="308.318,-295.614 318.907,-295.988 310.863,-289.093 308.318,-295.614"/>
</g>
<!-- software&#45;&gt;olivier -->
<g id="edge34" class="edge"><title>software&#45;&gt;olivier</title>
<path fill="none" stroke="black" d="M130.338,-204.41C129.854,-182.206 129.029,-144.378 128.46,-118.315"/>
<polygon fill="black" stroke="black" points="131.959,-118.206 128.241,-108.284 124.96,-118.358 131.959,-118.206"/>
</g>
<!-- software&#45;&gt;luc -->
<g id="edge33" class="edge"><title>software&#45;&gt;luc</title>
<path fill="none" stroke="black" d="M139.925,-204.357C156.04,-172.407 189.447,-106.171 208.085,-69.2188"/>
<polygon fill="black" stroke="black" points="211.327,-70.5641 212.705,-60.0593 205.077,-67.4117 211.327,-70.5641"/>
</g>
<!-- software&#45;&gt;rbo -->
<g id="edge32" class="edge"><title>software&#45;&gt;rbo</title>
<path fill="none" stroke="black" d="M151.647,-204.306C190.861,-170.042 275.215,-96.3334 316.737,-60.0514"/>
<polygon fill="black" stroke="black" points="319.218,-62.5323 324.445,-53.3168 314.612,-57.2611 319.218,-62.5323"/>
</g>
<!-- djabbz -->
<g id="node17" class="node"><title>djabbz</title>
<ellipse fill="yellow" stroke="black" cx="34.4469" cy="-246.196" rx="34.394" ry="18"/>
<text text-anchor="middle" x="34.4469" y="-242.496" font-family="Times,serif" font-size="14.00">djabbz</text>
</g>
<!-- software&#45;&gt;djabbz -->
<g id="edge35" class="edge"><title>software&#45;&gt;djabbz</title>
<path fill="none" stroke="black" d="M84.5648,-233.904C81.5784,-234.636 78.5819,-235.371 75.6213,-236.097"/>
<polygon fill="black" stroke="black" points="74.639,-232.735 65.7607,-238.516 76.3066,-239.533 74.639,-232.735"/>
</g>
</g>
</svg>
